DenkOne-Regular.ufo
<glyph name="exclam" format="1">
  <advance width="620"/>
  <unicode hex="0021"/>
  <outline>
    <contour>
      <point x="310" y="600" type="curve" smooth="yes"/>
      <point x="434" y="600"/>
      <point x="448" y="607"/>
      <point x="450" y="669" type="curve"/>
      <point x="494" y="1640" type="line"/>
      <point x="496" y="1710"/>
      <point x="470" y="1724"/>
      <point x="310" y="1724" type="curve" smooth="yes"/>
      <point x="150" y="1724"/>
      <point x="124" y="1710"/>
      <point x="126" y="1640" type="curve"/>
      <point x="170" y="669" type="line"/>
      <point x="172" y="607"/>
      <point x="186" y="600"/>
    </contour>
    <contour>
      <point x="310" y="0" type="curve" smooth="yes"/>
      <point x="440" y="0"/>
      <point x="458" y="7"/>
      <point x="461" y="57" type="curve" smooth="yes"/>
      <point x="472" y="252" type="line" smooth="yes"/>
      <point x="475" y="309"/>
      <point x="455" y="325"/>
      <point x="310" y="325" type="curve" smooth="yes"/>
      <point x="165" y="325"/>
      <point x="144" y="309"/>
      <point x="148" y="252" type="curve" smooth="yes"/>
      <point x="160" y="57" type="line" smooth="yes"/>
      <point x="163" y="7"/>
      <point x="180" y="0"/>
    </contour>
  </outline>
</glyph>
<glyph name="percent" format="1">
  <advance width="1698"/>
  <unicode hex="0025"/>
  <outline>
    <contour>
      <point x="435" y="-1" type="curve" smooth="yes"/>
      <point x="506" y="-2"/>
      <point x="533" y="2"/>
      <point x="550" y="48" type="curve" smooth="yes"/>
      <point x="1352" y="1629" type="line" smooth="yes"/>
      <point x="1371" y="1681"/>
      <point x="1346" y="1698"/>
      <point x="1232" y="1699" type="curve" smooth="yes"/>
      <point x="1109" y="1700"/>
      <point x="1099" y="1681"/>
      <point x="1080" y="1628" type="curve" smooth="yes"/>
      <point x="349" y="57" type="line" smooth="yes"/>
      <point x="328" y="12"/>
      <point x="347" y="0"/>
    </contour>
    <contour>
      <point x="424" y="1699" type="curve" smooth="yes"/>
      <point x="239" y="1699"/>
      <point x="69" y="1633"/>
      <point x="80" y="1463" type="curve" smooth="yes"/>
      <point x="96" y="1142" type="line" smooth="yes"/>
      <point x="106" y="985"/>
      <point x="261" y="940"/>
      <point x="424" y="940" type="curve" smooth="yes"/>
      <point x="586" y="940"/>
      <point x="743" y="985"/>
      <point x="752" y="1142" type="curve" smooth="yes"/>
      <point x="766" y="1463" type="line" smooth="yes"/>
      <point x="776" y="1633"/>
      <point x="607" y="1699"/>
    </contour>
    <contour>
      <point x="424" y="1070" type="curve" smooth="yes"/>
      <point x="357" y="1070"/>
      <point x="310" y="1098"/>
      <point x="314" y="1183" type="curve" smooth="yes"/>
      <point x="323" y="1463" type="line" smooth="yes"/>
      <point x="327" y="1540"/>
      <point x="358" y="1559"/>
      <point x="424" y="1559" type="curve" smooth="yes"/>
      <point x="488" y="1559"/>
      <point x="520" y="1540"/>
      <point x="524" y="1463" type="curve" smooth="yes"/>
      <point x="533" y="1183" type="line" smooth="yes"/>
      <point x="537" y="1099"/>
      <point x="489" y="1070"/>
    </contour>
    <contour>
      <point x="1274" y="759" type="curve" smooth="yes"/>
      <point x="1089" y="759"/>
      <point x="919" y="693"/>
      <point x="930" y="523" type="curve" smooth="yes"/>
      <point x="946" y="202" type="line" smooth="yes"/>
      <point x="956" y="45"/>
      <point x="1111" y="0"/>
      <point x="1274" y="0" type="curve" smooth="yes"/>
      <point x="1436" y="0"/>
      <point x="1593" y="45"/>
      <point x="1602" y="202" type="curve" smooth="yes"/>
      <point x="1616" y="523" type="line" smooth="yes"/>
      <point x="1626" y="693"/>
      <point x="1457" y="759"/>
    </contour>
    <contour>
      <point x="1274" y="130" type="curve" smooth="yes"/>
      <point x="1207" y="130"/>
      <point x="1160" y="158"/>
      <point x="1164" y="243" type="curve" smooth="yes"/>
      <point x="1173" y="523" type="line" smooth="yes"/>
      <point x="1177" y="600"/>
      <point x="1208" y="619"/>
      <point x="1274" y="619" type="curve" smooth="yes"/>
      <point x="1338" y="619"/>
      <point x="1370" y="600"/>
      <point x="1374" y="523" type="curve" smooth="yes"/>
      <point x="1383" y="243" type="line" smooth="yes"/>
      <point x="1387" y="158"/>
      <point x="1339" y="130"/>
    </contour>
  </outline>
</glyph>
<glyph name="parenleft" format="1">
  <advance width="687"/>
  <unicode hex="0028"/>
  <outline>
    <contour>
      <point x="101" y="1324" type="line"/>
      <point x="93" y="1702"/>
      <point x="320" y="1900"/>
      <point x="566" y="1900" type="curve" smooth="yes"/>
      <point x="607" y="1900" type="line" smooth="yes"/>
      <point x="663" y="1900"/>
      <point x="667" y="1890"/>
      <point x="667" y="1817" type="curve" smooth="yes"/>
      <point x="667" y="1736"/>
      <point x="655" y="1729"/>
      <point x="608" y="1729" type="curve" smooth="yes"/>
      <point x="430" y="1730"/>
      <point x="361" y="1643"/>
      <point x="357" y="1426" type="curve" smooth="yes"/>
      <point x="344" y="150" type="line" smooth="yes"/>
      <point x="340" y="-65"/>
      <point x="420" y="-140"/>
      <point x="579" y="-140" type="curve" smooth="yes"/>
      <point x="622" y="-140"/>
      <point x="638" y="-146"/>
      <point x="638" y="-218" type="curve" smooth="yes"/>
      <point x="638" y="-282"/>
      <point x="630" y="-291"/>
      <point x="578" y="-291" type="curve" smooth="yes"/>
      <point x="529" y="-291" type="line" smooth="yes"/>
      <point x="276" y="-291"/>
      <point x="125" y="-106"/>
      <point x="119" y="244" type="curve" smooth="yes"/>
    </contour>
  </outline>
</glyph>
<glyph name="plus" format="1">
  <advance width="978"/>
  <unicode hex="002B"/>
  <outline>
    <contour>
      <point x="866" y="664" type="line"/>
      <point x="934" y="664"/>
      <point x="938" y="681"/>
      <point x="938" y="759" type="curve" smooth="yes"/>
      <point x="938" y="845"/>
      <point x="934" y="866"/>
      <point x="866" y="866" type="curve" smooth="yes"/>
      <point x="112" y="866" type="line" smooth="yes"/>
      <point x="44" y="866"/>
      <point x="40" y="846"/>
      <point x="40" y="760" type="curve" smooth="yes"/>
      <point x="40" y="682"/>
      <point x="44" y="664"/>
      <point x="112" y="664" type="curve" smooth="yes"/>
    </contour>
    <contour>
      <point x="615" y="1150" type="line"/>
      <point x="615" y="1220"/>
      <point x="583" y="1222"/>
      <point x="494" y="1222" type="curve" smooth="yes"/>
      <point x="397" y="1222"/>
      <point x="361" y="1220"/>
      <point x="361" y="1150" type="curve" smooth="yes"/>
      <point x="387" y="396" type="line" smooth="yes"/>
      <point x="388" y="326"/>
      <point x="411" y="324"/>
      <point x="493" y="324" type="curve" smooth="yes"/>
      <point x="567" y="324"/>
      <point x="588" y="326"/>
      <point x="589" y="396" type="curve" smooth="yes"/>
    </contour>
  </outline>
</glyph>
<glyph name="slash" format="1">
  <advance width="964"/>
  <unicode hex="002F"/>
  <outline>
    <contour>
      <point x="174" y="-1" type="curve" smooth="yes"/>
      <point x="245" y="-2"/>
      <point x="272" y="2"/>
      <point x="289" y="48" type="curve" smooth="yes"/>
      <point x="878" y="1687" type="line" smooth="yes"/>
      <point x="897" y="1739"/>
      <point x="872" y="1756"/>
      <point x="758" y="1757" type="curve" smooth="yes"/>
      <point x="643" y="1758"/>
      <point x="634" y="1739"/>
      <point x="616" y="1686" type="curve" smooth="yes"/>
      <point x="88" y="57" type="line" smooth="yes"/>
      <point x="67" y="12"/>
      <point x="86" y="0"/>
    </contour>
  </outline>
</glyph>
<glyph name="zero" format="1">
  <advance width="1171"/>
  <unicode hex="0030"/>
  <outline>
    <contour>
      <point x="585" y="159" type="curve" smooth="yes"/>
      <point x="702" y="159"/>
      <point x="751" y="200"/>
      <point x="748" y="312" type="curve" smooth="yes"/>
      <point x="718" y="1389" type="line" smooth="yes"/>
      <point x="715" y="1505"/>
      <point x="671" y="1521"/>
      <point x="585" y="1521" type="curve" smooth="yes"/>
      <point x="499" y="1521"/>
      <point x="456" y="1505"/>
      <point x="453" y="1389" type="curve" smooth="yes"/>
      <point x="423" y="312" type="line" smooth="yes"/>
      <point x="420" y="200"/>
      <point x="468" y="159"/>
    </contour>
    <contour>
      <point x="585" y="-12" type="curve" smooth="yes"/>
      <point x="317" y="-12"/>
      <point x="155" y="100"/>
      <point x="150" y="273" type="curve" smooth="yes"/>
      <point x="121" y="1389" type="line" smooth="yes"/>
      <point x="116" y="1589"/>
      <point x="294" y="1701"/>
      <point x="585" y="1701" type="curve" smooth="yes"/>
      <point x="876" y="1701"/>
      <point x="1055" y="1589"/>
      <point x="1050" y="1389" type="curve" smooth="yes"/>
      <point x="1021" y="273" type="line" smooth="yes"/>
      <point x="1016" y="100"/>
      <point x="853" y="-12"/>
    </contour>
  </outline>
</glyph>
<glyph name="two" format="1">
  <advance width="1170"/>
  <unicode hex="0032"/>
  <outline>
    <contour>
      <point x="949" y="186" type="line"/>
      <point x="1019" y="186"/>
      <point x="1021" y="152"/>
      <point x="1021" y="101" type="curve" smooth="yes"/>
      <point x="1021" y="27"/>
      <point x="1019" y="0"/>
      <point x="949" y="0" type="curve" smooth="yes"/>
      <point x="228" y="0" type="line" smooth="yes"/>
      <point x="170" y="0"/>
      <point x="156" y="12"/>
      <point x="156" y="67" type="curve" smooth="yes"/>
      <point x="156" y="97" type="line" smooth="yes"/>
      <point x="156" y="144"/>
      <point x="166" y="169"/>
      <point x="188" y="194" type="curve" smooth="yes"/>
      <point x="648" y="813" type="line" smooth="yes"/>
      <point x="708" y="885"/>
      <point x="731" y="923"/>
      <point x="728" y="1027" type="curve" smooth="yes"/>
      <point x="717" y="1389" type="line" smooth="yes"/>
      <point x="714" y="1505"/>
      <point x="670" y="1521"/>
      <point x="584" y="1521" type="curve" smooth="yes"/>
      <point x="498" y="1521"/>
      <point x="455" y="1505"/>
      <point x="452" y="1389" type="curve" smooth="yes"/>
      <point x="440" y="965" type="line" smooth="yes"/>
      <point x="438" y="884"/>
      <point x="401" y="873"/>
      <point x="283" y="873" type="curve" smooth="yes"/>
      <point x="166" y="873"/>
      <point x="133" y="884"/>
      <point x="131" y="965" type="curve" smooth="yes"/>
      <point x="101" y="1381" type="line" smooth="yes"/>
      <point x="96" y="1581"/>
      <point x="273" y="1701"/>
      <point x="584" y="1701" type="curve" smooth="yes"/>
      <point x="887" y="1701"/>
      <point x="1064" y="1581"/>
      <point x="1059" y="1381" type="curve" smooth="yes"/>
      <point x="1037" y="955" type="line" smooth="yes"/>
      <point x="1035" y="864"/>
      <point x="1002" y="801"/>
      <point x="925" y="720" type="curve"/>
      <point x="468" y="194" type="line"/>
      <point x="468" y="186" type="line"/>
    </contour>
  </outline>
</glyph>
<glyph name="five" format="1">
  <advance width="1115"/>
  <unicode hex="0035"/>
  <outline>
    <contour>
      <point x="275" y="960" type="curve"/>
      <point x="399" y="960"/>
      <point x="413" y="971"/>
      <point x="415" y="1023" type="curve" smooth="yes"/>
      <point x="439" y="1594" type="line" smooth="yes"/>
      <point x="441" y="1671"/>
      <point x="417" y="1690"/>
      <point x="275" y="1690" type="curve" smooth="yes"/>
      <point x="142" y="1690"/>
      <point x="109" y="1676"/>
      <point x="111" y="1607" type="curve" smooth="yes"/>
      <point x="135" y="1028" type="line" smooth="yes"/>
      <point x="137" y="967"/>
      <point x="151" y="960"/>
    </contour>
    <contour>
      <point x="276" y="1468" type="line"/>
      <point x="917" y="1468" type="line" smooth="yes"/>
      <point x="987" y="1468"/>
      <point x="989" y="1491"/>
      <point x="989" y="1579" type="curve" smooth="yes"/>
      <point x="989" y="1667"/>
      <point x="987" y="1690"/>
      <point x="917" y="1690" type="curve" smooth="yes"/>
      <point x="276" y="1690" type="line"/>
    </contour>
    <contour>
      <point x="412" y="417" type="line"/>
      <point x="414" y="486"/>
      <point x="395" y="500"/>
      <point x="262" y="500" type="curve" smooth="yes"/>
      <point x="138" y="500"/>
      <point x="120" y="486"/>
      <point x="122" y="417" type="curve" smooth="yes"/>
      <point x="126" y="273" type="line" smooth="yes"/>
      <point x="131" y="100"/>
      <point x="289" y="-12"/>
      <point x="551" y="-12" type="curve" smooth="yes"/>
      <point x="813" y="-12"/>
      <point x="972" y="100"/>
      <point x="977" y="273" type="curve" smooth="yes"/>
      <point x="1014" y="890" type="line" smooth="yes"/>
      <point x="1019" y="1090"/>
      <point x="834" y="1147"/>
      <point x="735" y="1147" type="curve" smooth="yes"/>
      <point x="275" y="1147" type="line"/>
      <point x="275" y="961" type="line"/>
      <point x="531" y="961" type="line" smooth="yes"/>
      <point x="636" y="961"/>
      <point x="677" y="930"/>
      <point x="680" y="818" type="curve" smooth="yes"/>
      <point x="694" y="312" type="line" smooth="yes"/>
      <point x="697" y="200"/>
      <point x="654" y="159"/>
      <point x="551" y="159" type="curve" smooth="yes"/>
      <point x="448" y="159"/>
      <point x="406" y="200"/>
      <point x="409" y="312" type="curve" smooth="yes"/>
    </contour>
  </outline>
</glyph>
<glyph name="six" format="1">
  <advance width="1159"/>
  <unicode hex="0036"/>
  <outline>
    <contour>
      <point x="442" y="932" type="line"/>
      <point x="489" y="950"/>
      <point x="536" y="955"/>
      <point x="585" y="955" type="curve" smooth="yes"/>
      <point x="690" y="955"/>
      <point x="731" y="922"/>
      <point x="734" y="810" type="curve" smooth="yes"/>
      <point x="748" y="312" type="line" smooth="yes"/>
      <point x="751" y="200"/>
      <point x="702" y="159"/>
      <point x="585" y="159" type="curve" smooth="yes"/>
      <point x="468" y="159"/>
      <point x="420" y="200"/>
      <point x="423" y="312" type="curve" smooth="yes"/>
    </contour>
    <contour>
      <point x="586" y="1690" type="line"/>
      <point x="288" y="1690"/>
      <point x="106" y="1578"/>
      <point x="111" y="1378" type="curve" smooth="yes"/>
      <point x="150" y="273" type="line" smooth="yes"/>
      <point x="155" y="100"/>
      <point x="317" y="-12"/>
      <point x="585" y="-12" type="curve" smooth="yes"/>
      <point x="853" y="-12"/>
      <point x="1016" y="100"/>
      <point x="1021" y="273" type="curve" smooth="yes"/>
      <point x="1048" y="882" type="line" smooth="yes"/>
      <point x="1053" y="1082"/>
      <point x="796" y="1139"/>
      <point x="649" y="1139" type="curve" smooth="yes"/>
      <point x="568" y="1139"/>
      <point x="500" y="1127"/>
      <point x="446" y="1111" type="curve"/>
      <point x="452" y="1337" type="line" smooth="yes"/>
      <point x="456" y="1454"/>
      <point x="499" y="1469"/>
      <point x="585" y="1469" type="curve" smooth="yes"/>
      <point x="954" y="1469" type="line" smooth="yes"/>
      <point x="1001" y="1469"/>
      <point x="1014" y="1497"/>
      <point x="1014" y="1577" type="curve" smooth="yes"/>
      <point x="1014" y="1675"/>
      <point x="1008" y="1690"/>
      <point x="925" y="1690" type="curve" smooth="yes"/>
    </contour>
  </outline>
</glyph>
<glyph name="semicolon" format="1">
  <advance width="596"/>
  <unicode hex="003B"/>
  <outline>
    <contour>
      <point x="298" y="843" type="curve" smooth="yes"/>
      <point x="437" y="843"/>
      <point x="463" y="850"/>
      <point x="466" y="900" type="curve"/>
      <point x="475" y="1128" type="line"/>
      <point x="478" y="1185"/>
      <point x="452" y="1201"/>
      <point x="298" y="1201" type="curve" smooth="yes"/>
      <point x="144" y="1201"/>
      <point x="117" y="1185"/>
      <point x="121" y="1128" type="curve"/>
      <point x="130" y="900" type="line"/>
      <point x="133" y="850"/>
      <point x="159" y="843"/>
    </contour>
    <component base="comma"/>
  </outline>
</glyph>
<glyph name="equal" format="1">
  <advance width="938"/>
  <unicode hex="003D"/>
  <outline>
    <contour>
      <point x="806" y="831" type="line"/>
      <point x="874" y="831"/>
      <point x="878" y="852"/>
      <point x="878" y="930" type="curve" smooth="yes"/>
      <point x="878" y="1016"/>
      <point x="874" y="1041"/>
      <point x="806" y="1041" type="curve" smooth="yes"/>
      <point x="132" y="1041" type="line" smooth="yes"/>
      <point x="64" y="1041"/>
      <point x="60" y="1017"/>
      <point x="60" y="931" type="curve" smooth="yes"/>
      <point x="60" y="853"/>
      <point x="64" y="831"/>
      <point x="132" y="831" type="curve" smooth="yes"/>
    </contour>
    <contour>
      <point x="806" y="428" type="line"/>
      <point x="874" y="428"/>
      <point x="878" y="449"/>
      <point x="878" y="527" type="curve" smooth="yes"/>
      <point x="878" y="613"/>
      <point x="874" y="638"/>
      <point x="806" y="638" type="curve" smooth="yes"/>
      <point x="132" y="638" type="line" smooth="yes"/>
      <point x="64" y="638"/>
      <point x="60" y="614"/>
      <point x="60" y="528" type="curve" smooth="yes"/>
      <point x="60" y="450"/>
      <point x="64" y="428"/>
      <point x="132" y="428" type="curve" smooth="yes"/>
    </contour>
  </outline>
</glyph>
<glyph name="question" format="1">
  <advance width="1170"/>
  <unicode hex="003F"/>
  <outline>
    <contour>
      <point x="468" y="622" type="line"/>
      <point x="466" y="670"/>
      <point x="472" y="698"/>
      <point x="497" y="721" type="curve"/>
      <point x="637" y="840" type="line"/>
      <point x="722" y="917"/>
      <point x="732" y="947"/>
      <point x="728" y="1079" type="curve" smooth="yes"/>
      <point x="717" y="1378" type="line"/>
      <point x="714" y="1497"/>
      <point x="670" y="1513"/>
      <point x="584" y="1513" type="curve" smooth="yes"/>
      <point x="498" y="1513"/>
      <point x="455" y="1497"/>
      <point x="452" y="1378" type="curve"/>
      <point x="440" y="1028" type="line"/>
      <point x="438" y="945"/>
      <point x="401" y="934"/>
      <point x="283" y="934" type="curve" smooth="yes"/>
      <point x="166" y="934"/>
      <point x="133" y="945"/>
      <point x="131" y="1028" type="curve" smooth="yes"/>
      <point x="121" y="1370" type="line"/>
      <point x="116" y="1574"/>
      <point x="273" y="1697"/>
      <point x="584" y="1697" type="curve" smooth="yes"/>
      <point x="887" y="1697"/>
      <point x="1054" y="1574"/>
      <point x="1049" y="1370" type="curve"/>
      <point x="1037" y="1056" type="line"/>
      <point x="1035" y="964"/>
      <point x="1010" y="914"/>
      <point x="925" y="841" type="curve" smooth="yes"/>
      <point x="724" y="668" type="line"/>
      <point x="714" y="534" type="line" smooth="yes"/>
      <point x="710" y="464"/>
      <point x="686" y="462"/>
      <point x="596" y="462" type="curve" smooth="yes"/>
      <point x="504" y="462"/>
      <point x="478" y="464"/>
      <point x="478" y="534" type="curve"/>
    </contour>
    <contour>
      <point x="595" y="0" type="curve" smooth="yes"/>
      <point x="725" y="0"/>
      <point x="743" y="7"/>
      <point x="746" y="57" type="curve" smooth="yes"/>
      <point x="757" y="252" type="line" smooth="yes"/>
      <point x="760" y="309"/>
      <point x="740" y="325"/>
      <point x="595" y="325" type="curve" smooth="yes"/>
      <point x="450" y="325"/>
      <point x="429" y="309"/>
      <point x="433" y="252" type="curve" smooth="yes"/>
      <point x="445" y="57" type="line" smooth="yes"/>
      <point x="448" y="7"/>
      <point x="465" y="0"/>
    </contour>
  </outline>
</glyph>
<glyph name="A" format="1">
  <advance width="1079"/>
  <unicode hex="0041"/>
  <outline>
    <contour>
      <point x="540" y="1696" type="curve" smooth="yes"/>
      <point x="322" y="1696"/>
      <point x="300" y="1681"/>
      <point x="288" y="1605" type="curve"/>
      <point x="23" y="78" type="line" smooth="yes"/>
      <point x="11" y="7"/>
      <point x="48" y="0"/>
      <point x="152" y="0" type="curve" smooth="yes"/>
      <point x="279" y="0"/>
      <point x="296" y="7"/>
      <point x="308" y="78" type="curve" smooth="yes"/>
      <point x="535" y="1394" type="line"/>
      <point x="544" y="1394" type="line"/>
      <point x="771" y="78" type="line" smooth="yes"/>
      <point x="783" y="7"/>
      <point x="800" y="0"/>
      <point x="927" y="0" type="curve" smooth="yes"/>
      <point x="1032" y="0"/>
      <point x="1068" y="7"/>
      <point x="1056" y="78" type="curve" smooth="yes"/>
      <point x="791" y="1605" type="line"/>
      <point x="779" y="1681"/>
      <point x="757" y="1696"/>
    </contour>
    <contour>
      <point x="267" y="317" type="line"/>
      <point x="801" y="317" type="line"/>
      <point x="801" y="507" type="line"/>
      <point x="267" y="507" type="line"/>
    </contour>
    <contour>
      <point x="540" y="-170" type="move" name="btm"/>
    </contour>
    <contour>
      <point x="540" y="1700" type="move" name="top"/>
    </contour>
  </outline>
</glyph>
<glyph name="C" format="1">
  <advance width="1198"/>
  <unicode hex="0043"/>
  <outline>
    <contour>
      <point x="1062" y="415" type="line"/>
      <point x="1064" y="496"/>
      <point x="1041" y="507"/>
      <point x="920" y="507" type="curve" smooth="yes"/>
      <point x="797" y="507"/>
      <point x="758" y="496"/>
      <point x="761" y="415" type="curve" smooth="yes"/>
      <point x="765" y="296" type="line" smooth="yes"/>
      <point x="769" y="184"/>
      <point x="722" y="151"/>
      <point x="604" y="151" type="curve" smooth="yes"/>
      <point x="486" y="151"/>
      <point x="440" y="184"/>
      <point x="443" y="296" type="curve" smooth="yes"/>
      <point x="472" y="1396" type="line" smooth="yes"/>
      <point x="475" y="1513"/>
      <point x="519" y="1529"/>
      <point x="604" y="1529" type="curve" smooth="yes"/>
      <point x="689" y="1529"/>
      <point x="733" y="1513"/>
      <point x="736" y="1396" type="curve"/>
      <point x="749" y="879" type="line" smooth="yes"/>
      <point x="751" y="798"/>
      <point x="787" y="787"/>
      <point x="912" y="787" type="curve" smooth="yes"/>
      <point x="1036" y="787"/>
      <point x="1074" y="798"/>
      <point x="1076" y="879" type="curve" smooth="yes"/>
      <point x="1088" y="1365" type="line" smooth="yes"/>
      <point x="1093" y="1565"/>
      <point x="949" y="1701"/>
      <point x="604" y="1701" type="curve" smooth="yes"/>
      <point x="258" y="1701"/>
      <point x="115" y="1565"/>
      <point x="120" y="1365" type="curve" smooth="yes"/>
      <point x="148" y="305" type="line" smooth="yes"/>
      <point x="153" y="131"/>
      <point x="281" y="-12"/>
      <point x="604" y="-12" type="curve" smooth="yes"/>
      <point x="927" y="-12"/>
      <point x="1054" y="129"/>
      <point x="1059" y="303" type="curve"/>
    </contour>
    <contour>
      <point x="604" y="-170" type="move" name="btm"/>
    </contour>
    <contour>
      <point x="604" y="1700" type="move" name="top"/>
    </contour>
  </outline>
</glyph>
<glyph name="F" format="1">
  <advance width="901"/>
  <unicode hex="0046"/>
  <outline>
    <contour>
      <point x="307" y="0" type="curve"/>
      <point x="430" y="0"/>
      <point x="444" y="11"/>
      <point x="445" y="63" type="curve" smooth="yes"/>
      <point x="489" y="1607" type="line" smooth="yes"/>
      <point x="491" y="1676"/>
      <point x="465" y="1690"/>
      <point x="307" y="1690" type="curve" smooth="yes"/>
      <point x="148" y="1690"/>
      <point x="123" y="1676"/>
      <point x="125" y="1607" type="curve" smooth="yes"/>
      <point x="168" y="68" type="line" smooth="yes"/>
      <point x="170" y="7"/>
      <point x="184" y="0"/>
    </contour>
    <contour>
      <point x="308" y="1493" type="line"/>
      <point x="770" y="1493" type="line" smooth="yes"/>
      <point x="840" y="1493"/>
      <point x="841" y="1510"/>
      <point x="841" y="1591" type="curve" smooth="yes"/>
      <point x="841" y="1671"/>
      <point x="840" y="1689"/>
      <point x="770" y="1689" type="curve" smooth="yes"/>
      <point x="308" y="1689" type="line"/>
    </contour>
    <contour>
      <point x="247" y="689" type="line"/>
      <point x="709" y="689" type="line" smooth="yes"/>
      <point x="778" y="689"/>
      <point x="780" y="706"/>
      <point x="780" y="784" type="curve" smooth="yes"/>
      <point x="780" y="862"/>
      <point x="778" y="879"/>
      <point x="709" y="879" type="curve" smooth="yes"/>
      <point x="247" y="879" type="line"/>
    </contour>
    <contour>
      <point x="482" y="-170" type="move" name="btm"/>
    </contour>
    <contour>
      <point x="482" y="1700" type="move" name="top"/>
    </contour>
  </outline>
</glyph>
<glyph name="G" format="1">
  <advance width="1145"/>
  <unicode hex="0047"/>
  <outline>
    <contour>
      <point x="952" y="1486" type="line"/>
      <point x="999" y="1486"/>
      <point x="1012" y="1498"/>
      <point x="1012" y="1578" type="curve" smooth="yes"/>
      <point x="1012" y="1676"/>
      <point x="1014" y="1690"/>
      <point x="923" y="1690" type="curve" smooth="yes"/>
      <point x="625" y="1690" type="line" smooth="yes"/>
      <point x="260" y="1690"/>
      <point x="120" y="1551"/>
      <point x="125" y="1357" type="curve" smooth="yes"/>
      <point x="153" y="305" type="line" smooth="yes"/>
      <point x="158" y="131"/>
      <point x="280" y="-12"/>
      <point x="589" y="-12" type="curve" smooth="yes"/>
      <point x="898" y="-12"/>
      <point x="1020" y="129"/>
      <point x="1025" y="303" type="curve" smooth="yes"/>
      <point x="1043" y="938" type="line" smooth="yes"/>
      <point x="1045" y="1019"/>
      <point x="1025" y="1030"/>
      <point x="885" y="1030" type="curve" smooth="yes"/>
      <point x="746" y="1030"/>
      <point x="710" y="1019"/>
      <point x="713" y="938" type="curve" smooth="yes"/>
      <point x="731" y="296" type="line" smooth="yes"/>
      <point x="735" y="184"/>
      <point x="693" y="151"/>
      <point x="589" y="151" type="curve" smooth="yes"/>
      <point x="485" y="151"/>
      <point x="445" y="184"/>
      <point x="447" y="296" type="curve" smooth="yes"/>
      <point x="477" y="1355" type="line" smooth="yes"/>
      <point x="480" y="1472"/>
      <point x="525" y="1490"/>
      <point x="624" y="1486" type="curve" smooth="yes"/>
    </contour>
    <contour>
      <point x="584" y="-170" type="move" name="btm"/>
    </contour>
    <contour>
      <point x="584" y="1700" type="move" name="top"/>
    </contour>
  </outline>
</glyph>
<glyph name="H" format="1">
  <advance width="1231"/>
  <unicode hex="0048"/>
  <outline>
    <contour>
      <point x="388" y="689" type="line"/>
      <point x="822" y="689" type="line"/>
      <point x="822" y="879" type="line"/>
      <point x="388" y="879" type="line"/>
    </contour>
    <contour>
      <point x="307" y="0" type="curve" smooth="yes"/>
      <point x="430" y="0"/>
      <point x="444" y="7"/>
      <point x="445" y="68" type="curve" smooth="yes"/>
      <point x="489" y="1607" type="line" smooth="yes"/>
      <point x="491" y="1676"/>
      <point x="465" y="1690"/>
      <point x="307" y="1690" type="curve" smooth="yes"/>
      <point x="148" y="1690"/>
      <point x="123" y="1676"/>
      <point x="125" y="1607" type="curve" smooth="yes"/>
      <point x="168" y="68" type="line" smooth="yes"/>
      <point x="170" y="7"/>
      <point x="184" y="0"/>
    </contour>
    <contour>
      <point x="924" y="0" type="curve" smooth="yes"/>
      <point x="1046" y="0"/>
      <point x="1060" y="7"/>
      <point x="1062" y="68" type="curve" smooth="yes"/>
      <point x="1106" y="1607" type="line" smooth="yes"/>
      <point x="1108" y="1676"/>
      <point x="1082" y="1690"/>
      <point x="924" y="1690" type="curve" smooth="yes"/>
      <point x="765" y="1690"/>
      <point x="740" y="1676"/>
      <point x="742" y="1607" type="curve" smooth="yes"/>
      <point x="785" y="68" type="line" smooth="yes"/>
      <point x="787" y="7"/>
      <point x="801" y="0"/>
    </contour>
    <contour>
      <point x="615" y="-170" type="move" name="btm"/>
    </contour>
    <contour>
      <point x="615" y="1700" type="move" name="top"/>
    </contour>
  </outline>
</glyph>
<glyph name="I" format="1">
  <advance width="614"/>
  <unicode hex="0049"/>
  <outline>
    <contour>
      <point x="307" y="0" type="curve" smooth="yes"/>
      <point x="430" y="0"/>
      <point x="444" y="7"/>
      <point x="445" y="68" type="curve" smooth="yes"/>
      <point x="489" y="1607" type="line" smooth="yes"/>
      <point x="491" y="1676"/>
      <point x="465" y="1690"/>
      <point x="307" y="1690" type="curve" smooth="yes"/>
      <point x="148" y="1690"/>
      <point x="123" y="1676"/>
      <point x="125" y="1607" type="curve" smooth="yes"/>
      <point x="168" y="68" type="line" smooth="yes"/>
      <point x="170" y="7"/>
      <point x="184" y="0"/>
    </contour>
    <contour>
      <point x="307" y="-170" type="move" name="btm"/>
    </contour>
    <contour>
      <point x="307" y="1700" type="move" name="top"/>
    </contour>
  </outline>
</glyph>
<glyph name="J" format="1">
  <advance width="1015"/>
  <unicode hex="004A"/>
  <outline>
    <contour>
      <point x="562" y="296" type="line"/>
      <point x="565" y="184"/>
      <point x="537" y="151"/>
      <point x="460" y="151" type="curve" smooth="yes"/>
      <point x="384" y="151"/>
      <point x="355" y="184"/>
      <point x="358" y="296" type="curve" smooth="yes"/>
      <point x="367" y="696" type="line" smooth="yes"/>
      <point x="369" y="777"/>
      <point x="343" y="788"/>
      <point x="204" y="788" type="curve" smooth="yes"/>
      <point x="81" y="788"/>
      <point x="49" y="777"/>
      <point x="50" y="696" type="curve" smooth="yes"/>
      <point x="61" y="303" type="line" smooth="yes"/>
      <point x="66" y="129"/>
      <point x="179" y="-12"/>
      <point x="460" y="-12" type="curve" smooth="yes"/>
      <point x="742" y="-12"/>
      <point x="849" y="131"/>
      <point x="854" y="305" type="curve" smooth="yes"/>
      <point x="890" y="1607" type="line" smooth="yes"/>
      <point x="892" y="1676"/>
      <point x="866" y="1690"/>
      <point x="708" y="1690" type="curve" smooth="yes"/>
      <point x="549" y="1690"/>
      <point x="524" y="1676"/>
      <point x="526" y="1607" type="curve" smooth="yes"/>
    </contour>
    <contour>
      <point x="470" y="-170" type="move" name="btm"/>
    </contour>
    <contour>
      <point x="691" y="1700" type="move" name="top"/>
    </contour>
  </outline>
</glyph>
<glyph name="L" format="1">
  <advance width="820"/>
  <unicode hex="004C"/>
  <outline>
    <contour>
      <point x="307" y="0" type="curve"/>
      <point x="430" y="0"/>
      <point x="444" y="11"/>
      <point x="445" y="63" type="curve" smooth="yes"/>
      <point x="489" y="1607" type="line" smooth="yes"/>
      <point x="491" y="1676"/>
      <point x="465" y="1690"/>
      <point x="307" y="1690" type="curve" smooth="yes"/>
      <point x="148" y="1690"/>
      <point x="123" y="1676"/>
      <point x="125" y="1607" type="curve" smooth="yes"/>
      <point x="168" y="68" type="line" smooth="yes"/>
      <point x="170" y="7"/>
      <point x="184" y="0"/>
    </contour>
    <contour>
      <point x="307" y="0" type="line"/>
      <point x="709" y="0" type="line" smooth="yes"/>
      <point x="778" y="0"/>
      <point x="780" y="21"/>
      <point x="780" y="93" type="curve" smooth="yes"/>
      <point x="780" y="166"/>
      <point x="778" y="186"/>
      <point x="709" y="186" type="curve" smooth="yes"/>
      <point x="307" y="186" type="line"/>
    </contour>
    <contour>
      <point x="451" y="-170" type="move" name="btm"/>
    </contour>
    <contour>
      <point x="451" y="1700" type="move" name="top"/>
    </contour>
  </outline>
</glyph>
<glyph name="P" format="1">
  <advance width="1126"/>
  <unicode hex="0050"/>
  <outline>
    <contour>
      <point x="238" y="570" type="line"/>
      <point x="583" y="570" type="line" smooth="yes"/>
      <point x="917" y="570"/>
      <point x="1023" y="737"/>
      <point x="1027" y="889" type="curve" smooth="yes"/>
      <point x="1040" y="1364" type="line" smooth="yes"/>
      <point x="1047" y="1595"/>
      <point x="834" y="1690"/>
      <point x="560" y="1690" type="curve" smooth="yes"/>
      <point x="332" y="1690" type="line"/>
      <point x="332" y="1517" type="line"/>
      <point x="528" y="1517" type="line" smooth="yes"/>
      <point x="656" y="1517"/>
      <point x="685" y="1499"/>
      <point x="688" y="1396" type="curve" smooth="yes"/>
      <point x="702" y="881" type="line" smooth="yes"/>
      <point x="705" y="769"/>
      <point x="667" y="733"/>
      <point x="539" y="733" type="curve" smooth="yes"/>
      <point x="238" y="733" type="line"/>
    </contour>
    <contour>
      <point x="307" y="0" type="curve" smooth="yes"/>
      <point x="430" y="0"/>
      <point x="444" y="7"/>
      <point x="445" y="68" type="curve" smooth="yes"/>
      <point x="489" y="1607" type="line" smooth="yes"/>
      <point x="491" y="1676"/>
      <point x="465" y="1690"/>
      <point x="307" y="1690" type="curve" smooth="yes"/>
      <point x="148" y="1690"/>
      <point x="123" y="1676"/>
      <point x="125" y="1607" type="curve" smooth="yes"/>
      <point x="168" y="68" type="line" smooth="yes"/>
      <point x="170" y="7"/>
      <point x="184" y="0"/>
    </contour>
    <contour>
      <point x="582" y="-170" type="move" name="btm"/>
    </contour>
    <contour>
      <point x="582" y="1700" type="move" name="top"/>
    </contour>
  </outline>
</glyph>
<glyph name="Q" format="1">
  <advance width="1208"/>
  <unicode hex="0051"/>
  <outline>
    <contour>
      <point x="604" y="151" type="curve" smooth="yes"/>
      <point x="486" y="151"/>
      <point x="440" y="184"/>
      <point x="443" y="296" type="curve" smooth="yes"/>
      <point x="472" y="1396" type="line" smooth="yes"/>
      <point x="475" y="1513"/>
      <point x="519" y="1529"/>
      <point x="604" y="1529" type="curve" smooth="yes"/>
      <point x="689" y="1529"/>
      <point x="733" y="1513"/>
      <point x="736" y="1396" type="curve" smooth="yes"/>
      <point x="765" y="296" type="line" smooth="yes"/>
      <point x="768" y="184"/>
      <point x="722" y="151"/>
    </contour>
    <contour>
      <point x="604" y="-12" type="curve" smooth="yes"/>
      <point x="927" y="-12"/>
      <point x="1054" y="131"/>
      <point x="1059" y="305" type="curve" smooth="yes"/>
      <point x="1088" y="1365" type="line" smooth="yes"/>
      <point x="1093" y="1565"/>
      <point x="949" y="1701"/>
      <point x="604" y="1701" type="curve" smooth="yes"/>
      <point x="258" y="1701"/>
      <point x="115" y="1565"/>
      <point x="120" y="1365" type="curve" smooth="yes"/>
      <point x="148" y="305" type="line" smooth="yes"/>
      <point x="153" y="131"/>
      <point x="281" y="-12"/>
    </contour>
    <contour>
      <point x="588" y="54" type="line"/>
      <point x="783" y="-212" type="line" smooth="yes"/>
      <point x="831" y="-276"/>
      <point x="836" y="-286"/>
      <point x="939" y="-286" type="curve" smooth="yes"/>
      <point x="1049" y="-286"/>
      <point x="1060" y="-273"/>
      <point x="1060" y="-241" type="curve" smooth="yes"/>
      <point x="1060" y="-221"/>
      <point x="1038" y="-191"/>
      <point x="1006" y="-144" type="curve" smooth="yes"/>
      <point x="874" y="54" type="line"/>
    </contour>
    <contour>
      <point x="604" y="-170" type="move" name="btm"/>
    </contour>
    <contour>
      <point x="604" y="1700" type="move" name="top"/>
    </contour>
  </outline>
</glyph>
<glyph name="T" format="1">
  <advance width="954"/>
  <unicode hex="0054"/>
  <outline>
    <contour>
      <point x="477" y="0" type="curve"/>
      <point x="600" y="0"/>
      <point x="614" y="11"/>
      <point x="616" y="63" type="curve" smooth="yes"/>
      <point x="659" y="1607" type="line" smooth="yes"/>
      <point x="661" y="1676"/>
      <point x="636" y="1690"/>
      <point x="477" y="1690" type="curve" smooth="yes"/>
      <point x="319" y="1690"/>
      <point x="293" y="1676"/>
      <point x="295" y="1607" type="curve" smooth="yes"/>
      <point x="339" y="68" type="line" smooth="yes"/>
      <point x="341" y="7"/>
      <point x="354" y="0"/>
    </contour>
    <contour>
      <point x="843" y="1494" type="line"/>
      <point x="913" y="1494"/>
      <point x="915" y="1511"/>
      <point x="915" y="1592" type="curve" smooth="yes"/>
      <point x="915" y="1672"/>
      <point x="913" y="1690"/>
      <point x="843" y="1690" type="curve" smooth="yes"/>
      <point x="111" y="1690" type="line" smooth="yes"/>
      <point x="42" y="1690"/>
      <point x="40" y="1672"/>
      <point x="40" y="1592" type="curve" smooth="yes"/>
      <point x="40" y="1511"/>
      <point x="42" y="1494"/>
      <point x="111" y="1494" type="curve" smooth="yes"/>
    </contour>
    <contour>
      <point x="477" y="-170" type="move" name="btm"/>
    </contour>
    <contour>
      <point x="477" y="1700" type="move" name="top"/>
    </contour>
  </outline>
</glyph>
<glyph name="U" format="1">
  <advance width="1201"/>
  <unicode hex="0055"/>
  <outline>
    <contour>
      <point x="146" y="305" type="line"/>
      <point x="149" y="131"/>
      <point x="278" y="-12"/>
      <point x="601" y="-12" type="curve" smooth="yes"/>
      <point x="924" y="-12"/>
      <point x="1051" y="131"/>
      <point x="1056" y="305" type="curve" smooth="yes"/>
      <point x="1091" y="1607" type="line" smooth="yes"/>
      <point x="1093" y="1676"/>
      <point x="1067" y="1690"/>
      <point x="909" y="1690" type="curve" smooth="yes"/>
      <point x="750" y="1690"/>
      <point x="725" y="1676"/>
      <point x="727" y="1607" type="curve" smooth="yes"/>
      <point x="762" y="296" type="line" smooth="yes"/>
      <point x="765" y="184"/>
      <point x="719" y="151"/>
      <point x="601" y="151" type="curve" smooth="yes"/>
      <point x="483" y="151"/>
      <point x="437" y="184"/>
      <point x="440" y="296" type="curve" smooth="yes"/>
      <point x="474" y="1607" type="line" smooth="yes"/>
      <point x="476" y="1676"/>
      <point x="450" y="1690"/>
      <point x="292" y="1690" type="curve" smooth="yes"/>
      <point x="134" y="1690"/>
      <point x="108" y="1676"/>
      <point x="110" y="1607" type="curve" smooth="yes"/>
    </contour>
    <contour>
      <point x="600" y="-170" type="move" name="btm"/>
    </contour>
    <contour>
      <point x="600" y="1700" type="move" name="top"/>
    </contour>
  </outline>
</glyph>
<glyph name="W" format="1">
  <advance width="1764"/>
  <unicode hex="0057"/>
  <outline>
    <contour>
      <point x="1088" y="68" type="line"/>
      <point x="1103" y="8"/>
      <point x="1136" y="0"/>
      <point x="1293" y="0" type="curve" smooth="yes"/>
      <point x="1411" y="0"/>
      <point x="1435" y="9"/>
      <point x="1448" y="68" type="curve"/>
      <point x="1713" y="1607" type="line" smooth="yes"/>
      <point x="1723" y="1675"/>
      <point x="1689" y="1690"/>
      <point x="1531" y="1690" type="curve" smooth="yes"/>
      <point x="1372" y="1690"/>
      <point x="1351" y="1675"/>
      <point x="1348" y="1607" type="curve" smooth="yes"/>
      <point x="1286" y="287" type="line"/>
      <point x="1256" y="287" type="line"/>
      <point x="1060" y="1607" type="line" smooth="yes"/>
      <point x="1049" y="1675"/>
      <point x="1038" y="1690"/>
      <point x="888" y="1690" type="curve" smooth="yes"/>
      <point x="747" y="1690"/>
      <point x="735" y="1675"/>
      <point x="726" y="1607" type="curve" smooth="yes"/>
      <point x="531" y="287" type="line"/>
      <point x="501" y="287" type="line"/>
      <point x="438" y="1607" type="line" smooth="yes"/>
      <point x="435" y="1676"/>
      <point x="413" y="1690"/>
      <point x="246" y="1690" type="curve" smooth="yes"/>
      <point x="78" y="1690"/>
      <point x="37" y="1674"/>
      <point x="53" y="1607" type="curve" smooth="yes"/>
      <point x="318" y="68" type="line" smooth="yes"/>
      <point x="333" y="9"/>
      <point x="359" y="0"/>
      <point x="493" y="0" type="curve" smooth="yes"/>
      <point x="643" y="0"/>
      <point x="674" y="8"/>
      <point x="688" y="68" type="curve" smooth="yes"/>
      <point x="944" y="1585" type="line"/>
      <point x="832" y="1585" type="line"/>
    </contour>
    <contour>
      <point x="840" y="1192" type="line"/>
      <point x="943" y="1192" type="line"/>
      <point x="943" y="1289" type="line"/>
      <point x="840" y="1289" type="line"/>
    </contour>
    <contour>
      <point x="882" y="-170" type="move" name="btm"/>
    </contour>
    <contour>
      <point x="882" y="1700" type="move" name="top"/>
    </contour>
  </outline>
</glyph>
<glyph name="bracketleft" format="1">
  <advance width="666"/>
  <unicode hex="005B"/>
  <outline>
    <contour>
      <point x="564" y="-294" type="line"/>
      <point x="614" y="-294"/>
      <point x="625" y="-287"/>
      <point x="625" y="-214" type="curve" smooth="yes"/>
      <point x="625" y="-141"/>
      <point x="620" y="-129"/>
      <point x="570" y="-128" type="curve" smooth="yes"/>
      <point x="371" y="-128" type="line"/>
      <point x="408" y="1724" type="line"/>
      <point x="597" y="1725" type="line" smooth="yes"/>
      <point x="644" y="1725"/>
      <point x="656" y="1737"/>
      <point x="656" y="1818" type="curve" smooth="yes"/>
      <point x="656" y="1891"/>
      <point x="652" y="1902"/>
      <point x="596" y="1902" type="curve" smooth="yes"/>
      <point x="285" y="1902" type="line" smooth="yes"/>
      <point x="148" y="1903"/>
      <point x="122" y="1888"/>
      <point x="126" y="1758" type="curve" smooth="yes"/>
      <point x="180" y="-200" type="line" smooth="yes"/>
      <point x="182" y="-282"/>
      <point x="200" y="-294"/>
      <point x="274" y="-294" type="curve" smooth="yes"/>
    </contour>
  </outline>
</glyph>
<glyph name="bracketright" format="1">
  <advance width="666"/>
  <unicode hex="005D"/>
  <outline>
    <contour>
      <point x="102" y="-294" type="line"/>
      <point x="52" y="-294"/>
      <point x="41" y="-287"/>
      <point x="41" y="-214" type="curve" smooth="yes"/>
      <point x="41" y="-141"/>
      <point x="46" y="-129"/>
      <point x="96" y="-128" type="curve" smooth="yes"/>
      <point x="295" y="-128" type="line"/>
      <point x="258" y="1724" type="line"/>
      <point x="69" y="1725" type="line" smooth="yes"/>
      <point x="22" y="1725"/>
      <point x="10" y="1737"/>
      <point x="10" y="1818" type="curve" smooth="yes"/>
      <point x="10" y="1891"/>
      <point x="14" y="1902"/>
      <point x="70" y="1902" type="curve" smooth="yes"/>
      <point x="381" y="1902" type="line" smooth="yes"/>
      <point x="518" y="1903"/>
      <point x="544" y="1888"/>
      <point x="540" y="1758" type="curve" smooth="yes"/>
      <point x="486" y="-200" type="line" smooth="yes"/>
      <point x="484" y="-282"/>
      <point x="466" y="-294"/>
      <point x="392" y="-294" type="curve" smooth="yes"/>
    </contour>
  </outline>
</glyph>
<glyph name="a" format="1">
  <advance width="1086"/>
  <unicode hex="0061"/>
  <outline>
    <contour>
      <point x="965" y="925" type="line"/>
      <point x="970" y="1108"/>
      <point x="772" y="1214"/>
      <point x="543" y="1214" type="curve" smooth="yes"/>
      <point x="382" y="1214"/>
      <point x="107" y="1150"/>
      <point x="114" y="937" type="curve" smooth="yes"/>
      <point x="122" y="724" type="line" smooth="yes"/>
      <point x="124" y="674"/>
      <point x="143" y="667"/>
      <point x="264" y="667" type="curve" smooth="yes"/>
      <point x="394" y="667"/>
      <point x="414" y="674"/>
      <point x="415" y="724" type="curve" smooth="yes"/>
      <point x="422" y="951" type="line" smooth="yes"/>
      <point x="425" y="1040"/>
      <point x="472" y="1058"/>
      <point x="540" y="1058" type="curve" smooth="yes"/>
      <point x="613" y="1058"/>
      <point x="646" y="1023"/>
      <point x="648" y="950" type="curve" smooth="yes"/>
      <point x="669" y="187" type="line"/>
      <point x="680" y="152" type="line"/>
      <point x="683" y="57" type="line" smooth="yes"/>
      <point x="684" y="7"/>
      <point x="700" y="0"/>
      <point x="803" y="0" type="curve" smooth="yes"/>
      <point x="915" y="0"/>
      <point x="932" y="7"/>
      <point x="934" y="57" type="curve" smooth="yes"/>
    </contour>
    <contour>
      <point x="713" y="627" type="line"/>
      <point x="611" y="613"/>
      <point x="489" y="591"/>
      <point x="386" y="557" type="curve" smooth="yes"/>
      <point x="255" y="514"/>
      <point x="107" y="440"/>
      <point x="109" y="291" type="curve" smooth="yes"/>
      <point x="110" y="237" type="line" smooth="yes"/>
      <point x="112" y="98"/>
      <point x="207" y="-12"/>
      <point x="394" y="-12" type="curve" smooth="yes"/>
      <point x="615" y="-12"/>
      <point x="771" y="170"/>
      <point x="803" y="205" type="curve"/>
      <point x="736" y="287" type="line"/>
      <point x="704" y="254"/>
      <point x="635" y="154"/>
      <point x="496" y="154" type="curve" smooth="yes"/>
      <point x="433" y="154"/>
      <point x="383" y="186"/>
      <point x="383" y="267" type="curve" smooth="yes"/>
      <point x="383" y="306" type="line" smooth="yes"/>
      <point x="383" y="364"/>
      <point x="427" y="398"/>
      <point x="493" y="428" type="curve" smooth="yes"/>
      <point x="543" y="450"/>
      <point x="608" y="467"/>
      <point x="699" y="481" type="curve"/>
    </contour>
    <contour>
      <point x="537" y="-170" type="move" name="btm"/>
    </contour>
    <contour>
      <point x="537" y="1700" type="move" name="top"/>
    </contour>
  </outline>
</glyph>
<glyph name="d" format="1">
  <advance width="1098"/>
  <unicode hex="0064"/>
  <outline>
    <contour>
      <point x="681" y="1082" type="line"/>
      <point x="641" y="1131"/>
      <point x="554" y="1214"/>
      <point x="426" y="1214" type="curve" smooth="yes"/>
      <point x="240" y="1214"/>
      <point x="115" y="1076"/>
      <point x="121" y="883" type="curve" smooth="yes"/>
      <point x="139" y="320" type="line" smooth="yes"/>
      <point x="147" y="79"/>
      <point x="253" y="-12"/>
      <point x="425" y="-12" type="curve" smooth="yes"/>
      <point x="562" y="-12"/>
      <point x="656" y="56"/>
      <point x="711" y="110" type="curve"/>
      <point x="705" y="243" type="line"/>
      <point x="680" y="209"/>
      <point x="623" y="167"/>
      <point x="550" y="167" type="curve" smooth="yes"/>
      <point x="465" y="167"/>
      <point x="412" y="222"/>
      <point x="415" y="320" type="curve" smooth="yes"/>
      <point x="430" y="883" type="line" smooth="yes"/>
      <point x="432" y="975"/>
      <point x="484" y="1007"/>
      <point x="543" y="1007" type="curve" smooth="yes"/>
      <point x="598" y="1007"/>
      <point x="656" y="971"/>
      <point x="685" y="939" type="curve"/>
    </contour>
    <contour>
      <point x="815" y="0" type="curve" smooth="yes"/>
      <point x="927" y="0"/>
      <point x="945" y="7"/>
      <point x="946" y="57" type="curve" smooth="yes"/>
      <point x="977" y="1651" type="line" smooth="yes"/>
      <point x="978" y="1708"/>
      <point x="960" y="1724"/>
      <point x="815" y="1724" type="curve" smooth="yes"/>
      <point x="670" y="1724"/>
      <point x="652" y="1708"/>
      <point x="653" y="1651" type="curve" smooth="yes"/>
      <point x="683" y="170" type="line"/>
      <point x="695" y="139" type="line"/>
      <point x="695" y="57" type="line" smooth="yes"/>
      <point x="695" y="7"/>
      <point x="712" y="0"/>
    </contour>
    <contour>
      <point x="549" y="-170" type="move" name="btm"/>
    </contour>
    <contour>
      <point x="349" y="1700" type="move" name="top"/>
    </contour>
  </outline>
</glyph>
<glyph name="e" format="1">
  <advance width="1062"/>
  <unicode hex="0065"/>
  <outline>
    <contour>
      <point x="367" y="484" type="line"/>
      <point x="723" y="484" type="line"/>
      <point x="723" y="634" type="line"/>
      <point x="367" y="634" type="line"/>
    </contour>
    <contour>
      <point x="664" y="259" type="line"/>
      <point x="664" y="164"/>
      <point x="626" y="132"/>
      <point x="540" y="132" type="curve" smooth="yes"/>
      <point x="454" y="132"/>
      <point x="405" y="166"/>
      <point x="408" y="268" type="curve" smooth="yes"/>
      <point x="428" y="927" type="line" smooth="yes"/>
      <point x="431" y="1040"/>
      <point x="480" y="1058"/>
      <point x="546" y="1058" type="curve" smooth="yes"/>
      <point x="606" y="1058"/>
      <point x="651" y="1040"/>
      <point x="654" y="927" type="curve" smooth="yes"/>
      <point x="669" y="484" type="line"/>
      <point x="804" y="484" type="line" smooth="yes"/>
      <point x="924" y="484"/>
      <point x="944" y="491"/>
      <point x="946" y="541" type="curve" smooth="yes"/>
      <point x="961" y="910" type="line" smooth="yes"/>
      <point x="969" y="1123"/>
      <point x="758" y="1214"/>
      <point x="546" y="1214" type="curve" smooth="yes"/>
      <point x="324" y="1214"/>
      <point x="103" y="1123"/>
      <point x="111" y="910" type="curve" smooth="yes"/>
      <point x="134" y="276" type="line" smooth="yes"/>
      <point x="142" y="58"/>
      <point x="339" y="-12"/>
      <point x="541" y="-12" type="curve" smooth="yes"/>
      <point x="741" y="-12"/>
      <point x="938" y="37"/>
      <point x="938" y="247" type="curve" smooth="yes"/>
      <point x="938" y="291" type="line" smooth="yes"/>
      <point x="938" y="341"/>
      <point x="920" y="355"/>
      <point x="802" y="355" type="curve" smooth="yes"/>
      <point x="683" y="355"/>
      <point x="664" y="340"/>
      <point x="664" y="290" type="curve" smooth="yes"/>
    </contour>
    <contour>
      <point x="536" y="-170" type="move" name="btm"/>
    </contour>
    <contour>
      <point x="536" y="1700" type="move" name="top"/>
    </contour>
  </outline>
</glyph>
<glyph name="h" format="1">
  <advance width="1087"/>
  <unicode hex="0068"/>
  <outline>
    <contour>
      <point x="986" y="890" type="line"/>
      <point x="992" y="1092"/>
      <point x="869" y="1214"/>
      <point x="706" y="1214" type="curve" smooth="yes"/>
      <point x="529" y="1214"/>
      <point x="440" y="1082"/>
      <point x="324" y="934" type="curve"/>
      <point x="324" y="934"/>
      <point x="416" y="866"/>
      <point x="416" y="866" type="curve"/>
      <point x="441" y="925"/>
      <point x="491" y="994"/>
      <point x="564" y="994" type="curve" smooth="yes"/>
      <point x="629" y="994"/>
      <point x="675" y="966"/>
      <point x="678" y="861" type="curve" smooth="yes"/>
      <point x="701" y="57" type="line" smooth="yes"/>
      <point x="702" y="7"/>
      <point x="719" y="0"/>
      <point x="831" y="0" type="curve" smooth="yes"/>
      <point x="943" y="0"/>
      <point x="961" y="7"/>
      <point x="962" y="57" type="curve" smooth="yes"/>
    </contour>
    <contour>
      <point x="293" y="0" type="curve" smooth="yes"/>
      <point x="405" y="0"/>
      <point x="423" y="7"/>
      <point x="424" y="57" type="curve" smooth="yes"/>
      <point x="455" y="1651" type="line" smooth="yes"/>
      <point x="456" y="1708"/>
      <point x="438" y="1724"/>
      <point x="293" y="1724" type="curve" smooth="yes"/>
      <point x="148" y="1724"/>
      <point x="130" y="1708"/>
      <point x="131" y="1651" type="curve" smooth="yes"/>
      <point x="163" y="57" type="line" smooth="yes"/>
      <point x="164" y="7"/>
      <point x="181" y="0"/>
    </contour>
    <contour>
      <point x="558" y="-170" type="move" name="btm"/>
    </contour>
    <contour>
      <point x="558" y="1700" type="move" name="top"/>
    </contour>
  </outline>
</glyph>
<glyph name="j" format="1">
  <advance width="571"/>
  <unicode hex="006A"/>
  <outline>
    <contour>
      <point x="290" y="1360" type="curve" smooth="yes"/>
      <point x="420" y="1360"/>
      <point x="440" y="1367"/>
      <point x="441" y="1417" type="curve" smooth="yes"/>
      <point x="452" y="1612" type="line" smooth="yes"/>
      <point x="453" y="1669"/>
      <point x="435" y="1685"/>
      <point x="290" y="1685" type="curve" smooth="yes"/>
      <point x="145" y="1685"/>
      <point x="127" y="1669"/>
      <point x="128" y="1612" type="curve" smooth="yes"/>
      <point x="140" y="1417" type="line" smooth="yes"/>
      <point x="141" y="1367"/>
      <point x="160" y="1360"/>
    </contour>
    <contour>
      <point x="285" y="-420" type="curve" smooth="yes"/>
      <point x="396" y="-420"/>
      <point x="414" y="-413"/>
      <point x="415" y="-363" type="curve" smooth="yes"/>
      <point x="447" y="1129" type="line" smooth="yes"/>
      <point x="449" y="1186"/>
      <point x="430" y="1202"/>
      <point x="285" y="1202" type="curve" smooth="yes"/>
      <point x="140" y="1202"/>
      <point x="121" y="1186"/>
      <point x="123" y="1129" type="curve" smooth="yes"/>
      <point x="156" y="-363" type="line" smooth="yes"/>
      <point x="157" y="-413"/>
      <point x="173" y="-420"/>
    </contour>
    <contour>
      <point x="287" y="-170" type="move" name="btm"/>
    </contour>
    <contour>
      <point x="287" y="1700" type="move" name="top"/>
    </contour>
  </outline>
</glyph>
<glyph name="k" format="1">
  <advance width="1005"/>
  <unicode hex="006B"/>
  <outline>
    <contour>
      <point x="293" y="0" type="curve" smooth="yes"/>
      <point x="405" y="0"/>
      <point x="423" y="7"/>
      <point x="424" y="57" type="curve" smooth="yes"/>
      <point x="455" y="1651" type="line" smooth="yes"/>
      <point x="456" y="1708"/>
      <point x="438" y="1724"/>
      <point x="293" y="1724" type="curve" smooth="yes"/>
      <point x="148" y="1724"/>
      <point x="130" y="1708"/>
      <point x="131" y="1651" type="curve" smooth="yes"/>
      <point x="163" y="57" type="line" smooth="yes"/>
      <point x="164" y="7"/>
      <point x="181" y="0"/>
    </contour>
    <contour>
      <point x="831" y="0" type="curve" smooth="yes"/>
      <point x="935" y="0"/>
      <point x="952" y="5"/>
      <point x="952" y="32" type="curve" smooth="yes"/>
      <point x="952" y="39"/>
      <point x="946" y="57"/>
      <point x="935" y="87" type="curve" smooth="yes"/>
      <point x="767" y="542" type="line"/>
      <point x="951" y="1094" type="line" smooth="yes"/>
      <point x="959" y="1119"/>
      <point x="965" y="1138"/>
      <point x="965" y="1153" type="curve" smooth="yes"/>
      <point x="965" y="1197"/>
      <point x="949" y="1202"/>
      <point x="825" y="1202" type="curve" smooth="yes"/>
      <point x="688" y="1202"/>
      <point x="662" y="1192"/>
      <point x="649" y="1137" type="curve" smooth="yes"/>
      <point x="499" y="542" type="line"/>
      <point x="695" y="57" type="line" smooth="yes"/>
      <point x="714" y="7"/>
      <point x="727" y="0"/>
    </contour>
    <contour>
      <point x="547" y="-170" type="move" name="btm"/>
    </contour>
    <contour>
      <point x="547" y="1700" type="move" name="top"/>
    </contour>
  </outline>
</glyph>
<glyph name="l" format="1">
  <advance width="586"/>
  <unicode hex="006C"/>
  <outline>
    <contour>
      <point x="293" y="0" type="curve" smooth="yes"/>
      <point x="405" y="0"/>
      <point x="423" y="7"/>
      <point x="424" y="57" type="curve" smooth="yes"/>
      <point x="455" y="1651" type="line" smooth="yes"/>
      <point x="456" y="1708"/>
      <point x="438" y="1724"/>
      <point x="293" y="1724" type="curve" smooth="yes"/>
      <point x="148" y="1724"/>
      <point x="130" y="1708"/>
      <point x="131" y="1651" type="curve" smooth="yes"/>
      <point x="163" y="57" type="line" smooth="yes"/>
      <point x="164" y="7"/>
      <point x="181" y="0"/>
    </contour>
    <contour>
      <point x="293" y="-170" type="move" name="btm"/>
    </contour>
    <contour>
      <point x="293" y="1700" type="move" name="top"/>
    </contour>
  </outline>
</glyph>
<glyph name="m" format="1">
  <advance width="1619"/>
  <unicode hex="006D"/>
  <outline>
    <contour>
      <point x="283" y="0" type="curve" smooth="yes"/>
      <point x="395" y="0"/>
      <point x="413" y="7"/>
      <point x="414" y="57" type="curve" smooth="yes"/>
      <point x="442" y="1010" type="line"/>
      <point x="423" y="1035" type="line"/>
      <point x="425" y="1129" type="line" smooth="yes"/>
      <point x="426" y="1186"/>
      <point x="409" y="1202"/>
      <point x="273" y="1202" type="curve" smooth="yes"/>
      <point x="137" y="1202"/>
      <point x="120" y="1186"/>
      <point x="121" y="1129" type="curve" smooth="yes"/>
      <point x="153" y="57" type="line" smooth="yes"/>
      <point x="154" y="7"/>
      <point x="171" y="0"/>
    </contour>
    <contour>
      <point x="978" y="890" type="line"/>
      <point x="984" y="1092"/>
      <point x="861" y="1214"/>
      <point x="698" y="1214" type="curve" smooth="yes"/>
      <point x="521" y="1214"/>
      <point x="432" y="1082"/>
      <point x="316" y="934" type="curve"/>
      <point x="316" y="934"/>
      <point x="408" y="866"/>
      <point x="408" y="866" type="curve"/>
      <point x="433" y="925"/>
      <point x="483" y="994"/>
      <point x="556" y="994" type="curve" smooth="yes"/>
      <point x="621" y="994"/>
      <point x="667" y="966"/>
      <point x="670" y="861" type="curve" smooth="yes"/>
      <point x="693" y="57" type="line" smooth="yes"/>
      <point x="694" y="7"/>
      <point x="711" y="0"/>
      <point x="823" y="0" type="curve" smooth="yes"/>
      <point x="935" y="0"/>
      <point x="953" y="7"/>
      <point x="954" y="57" type="curve" smooth="yes"/>
    </contour>
    <contour>
      <point x="1518" y="890" type="line"/>
      <point x="1524" y="1092"/>
      <point x="1401" y="1214"/>
      <point x="1238" y="1214" type="curve" smooth="yes"/>
      <point x="1061" y="1214"/>
      <point x="972" y="1082"/>
      <point x="856" y="934" type="curve"/>
      <point x="856" y="934"/>
      <point x="948" y="866"/>
      <point x="948" y="866" type="curve"/>
      <point x="973" y="925"/>
      <point x="1023" y="994"/>
      <point x="1096" y="994" type="curve" smooth="yes"/>
      <point x="1161" y="994"/>
      <point x="1207" y="966"/>
      <point x="1210" y="861" type="curve" smooth="yes"/>
      <point x="1233" y="57" type="line" smooth="yes"/>
      <point x="1234" y="7"/>
      <point x="1251" y="0"/>
      <point x="1363" y="0" type="curve" smooth="yes"/>
      <point x="1475" y="0"/>
      <point x="1493" y="7"/>
      <point x="1494" y="57" type="curve" smooth="yes"/>
    </contour>
    <contour>
      <point x="819" y="-170" type="move" name="btm"/>
    </contour>
    <contour>
      <point x="819" y="1700" type="move" name="top"/>
    </contour>
  </outline>
</glyph>
<glyph name="o" format="1">
  <advance width="1081"/>
  <unicode hex="006F"/>
  <outline>
    <contour>
      <point x="541" y="1214" type="curve" smooth="yes"/>
      <point x="319" y="1214"/>
      <point x="103" y="1123"/>
      <point x="111" y="910" type="curve" smooth="yes"/>
      <point x="134" y="276" type="line" smooth="yes"/>
      <point x="142" y="58"/>
      <point x="335" y="-12"/>
      <point x="542" y="-12" type="curve" smooth="yes"/>
      <point x="747" y="-12"/>
      <point x="940" y="59"/>
      <point x="948" y="277" type="curve" smooth="yes"/>
      <point x="971" y="910" type="line" smooth="yes"/>
      <point x="979" y="1123"/>
      <point x="763" y="1214"/>
    </contour>
    <contour>
      <point x="541" y="132" type="curve" smooth="yes"/>
      <point x="448" y="132"/>
      <point x="405" y="166"/>
      <point x="408" y="268" type="curve" smooth="yes"/>
      <point x="428" y="927" type="line" smooth="yes"/>
      <point x="431" y="1040"/>
      <point x="475" y="1058"/>
      <point x="541" y="1058" type="curve" smooth="yes"/>
      <point x="607" y="1058"/>
      <point x="651" y="1040"/>
      <point x="654" y="927" type="curve" smooth="yes"/>
      <point x="674" y="269" type="line" smooth="yes"/>
      <point x="677" y="167"/>
      <point x="634" y="132"/>
    </contour>
    <contour>
      <point x="541" y="-170" type="move" name="btm"/>
    </contour>
    <contour>
      <point x="541" y="1700" type="move" name="top"/>
    </contour>
  </outline>
</glyph>
<glyph name="p" format="1">
  <advance width="1087"/>
  <unicode hex="0070"/>
  <outline>
    <contour>
      <point x="412" y="939" type="line"/>
      <point x="441" y="971"/>
      <point x="499" y="1007"/>
      <point x="554" y="1007" type="curve" smooth="yes"/>
      <point x="613" y="1007"/>
      <point x="665" y="975"/>
      <point x="667" y="883" type="curve" smooth="yes"/>
      <point x="682" y="320" type="line" smooth="yes"/>
      <point x="685" y="222"/>
      <point x="632" y="167"/>
      <point x="547" y="167" type="curve" smooth="yes"/>
      <point x="474" y="167"/>
      <point x="417" y="209"/>
      <point x="392" y="243" type="curve"/>
      <point x="386" y="110" type="line"/>
      <point x="441" y="56"/>
      <point x="535" y="-12"/>
      <point x="672" y="-12" type="curve" smooth="yes"/>
      <point x="844" y="-12"/>
      <point x="950" y="79"/>
      <point x="958" y="320" type="curve" smooth="yes"/>
      <point x="976" y="883" type="line" smooth="yes"/>
      <point x="982" y="1076"/>
      <point x="857" y="1214"/>
      <point x="671" y="1214" type="curve" smooth="yes"/>
      <point x="543" y="1214"/>
      <point x="450" y="1127"/>
      <point x="380" y="1047" type="curve"/>
    </contour>
    <contour>
      <point x="283" y="-420" type="curve" smooth="yes"/>
      <point x="394" y="-420"/>
      <point x="412" y="-413"/>
      <point x="413" y="-363" type="curve" smooth="yes"/>
      <point x="443" y="1014" type="line"/>
      <point x="423" y="1041" type="line"/>
      <point x="425" y="1129" type="line"/>
      <point x="427" y="1186"/>
      <point x="409" y="1202"/>
      <point x="273" y="1202" type="curve" smooth="yes"/>
      <point x="137" y="1202"/>
      <point x="119" y="1186"/>
      <point x="121" y="1129" type="curve"/>
      <point x="154" y="-363" type="line" smooth="yes"/>
      <point x="155" y="-413"/>
      <point x="171" y="-420"/>
    </contour>
    <contour>
      <point x="548" y="-170" type="move" name="btm"/>
    </contour>
    <contour>
      <point x="548" y="1700" type="move" name="top"/>
    </contour>
  </outline>
</glyph>
<glyph name="s" format="1">
  <advance width="1054"/>
  <unicode hex="0073"/>
  <outline>
    <contour>
      <point x="126" y="250" type="line"/>
      <point x="126" y="40"/>
      <point x="344" y="-12"/>
      <point x="538" y="-12" type="curve" smooth="yes"/>
      <point x="738" y="-12"/>
      <point x="917" y="51"/>
      <point x="925" y="235" type="curve" smooth="yes"/>
      <point x="927" y="281" type="line" smooth="yes"/>
      <point x="933" y="408"/>
      <point x="894" y="468"/>
      <point x="759" y="516" type="curve" smooth="yes"/>
      <point x="507" y="606" type="line" smooth="yes"/>
      <point x="438" y="629"/>
      <point x="410" y="670"/>
      <point x="412" y="735" type="curve" smooth="yes"/>
      <point x="419" y="952" type="line" smooth="yes"/>
      <point x="422" y="1038"/>
      <point x="467" y="1058"/>
      <point x="533" y="1058" type="curve" smooth="yes"/>
      <point x="599" y="1058"/>
      <point x="642" y="1040"/>
      <point x="645" y="951" type="curve" smooth="yes"/>
      <point x="652" y="724" type="line" smooth="yes"/>
      <point x="653" y="674"/>
      <point x="673" y="667"/>
      <point x="803" y="667" type="curve" smooth="yes"/>
      <point x="923" y="667"/>
      <point x="943" y="674"/>
      <point x="945" y="724" type="curve" smooth="yes"/>
      <point x="953" y="934" type="line" smooth="yes"/>
      <point x="961" y="1147"/>
      <point x="750" y="1214"/>
      <point x="533" y="1214" type="curve" smooth="yes"/>
      <point x="311" y="1214"/>
      <point x="93" y="1131"/>
      <point x="101" y="918" type="curve" smooth="yes"/>
      <point x="107" y="743" type="line" smooth="yes"/>
      <point x="111" y="633"/>
      <point x="156" y="554"/>
      <point x="250" y="521" type="curve" smooth="yes"/>
      <point x="546" y="417" type="line" smooth="yes"/>
      <point x="619" y="392"/>
      <point x="653" y="367"/>
      <point x="653" y="300" type="curve" smooth="yes"/>
      <point x="653" y="251" type="line" smooth="yes"/>
      <point x="653" y="166"/>
      <point x="623" y="132"/>
      <point x="537" y="132" type="curve" smooth="yes"/>
      <point x="451" y="132"/>
      <point x="401" y="160"/>
      <point x="401" y="241" type="curve" smooth="yes"/>
      <point x="401" y="290" type="line" smooth="yes"/>
      <point x="401" y="340"/>
      <point x="382" y="355"/>
      <point x="263" y="355" type="curve" smooth="yes"/>
      <point x="145" y="355"/>
      <point x="126" y="341"/>
      <point x="126" y="291" type="curve" smooth="yes"/>
    </contour>
    <contour>
      <point x="527" y="-170" type="move" name="btm"/>
    </contour>
    <contour>
      <point x="527" y="1700" type="move" name="top"/>
    </contour>
  </outline>
</glyph>
<glyph name="u" format="1">
  <advance width="1086"/>
  <unicode hex="0075"/>
  <outline>
    <contour>
      <point x="803" y="0" type="curve" smooth="yes"/>
      <point x="915" y="0"/>
      <point x="933" y="7"/>
      <point x="934" y="57" type="curve" smooth="yes"/>
      <point x="965" y="1129" type="line"/>
      <point x="966" y="1186"/>
      <point x="948" y="1202"/>
      <point x="803" y="1202" type="curve" smooth="yes"/>
      <point x="658" y="1202"/>
      <point x="640" y="1186"/>
      <point x="641" y="1129" type="curve"/>
      <point x="669" y="179" type="line"/>
      <point x="680" y="150" type="line"/>
      <point x="683" y="57" type="line" smooth="yes"/>
      <point x="684" y="7"/>
      <point x="700" y="0"/>
    </contour>
    <contour>
      <point x="126" y="268" type="line"/>
      <point x="131" y="85"/>
      <point x="232" y="-12"/>
      <point x="396" y="-12" type="curve" smooth="yes"/>
      <point x="576" y="-12"/>
      <point x="678" y="97"/>
      <point x="728" y="152" type="curve"/>
      <point x="730" y="296" type="line"/>
      <point x="703" y="267"/>
      <point x="637" y="167"/>
      <point x="530" y="167" type="curve" smooth="yes"/>
      <point x="467" y="167"/>
      <point x="399" y="197"/>
      <point x="402" y="313" type="curve" smooth="yes"/>
      <point x="425" y="1129" type="line"/>
      <point x="426" y="1186"/>
      <point x="408" y="1202"/>
      <point x="263" y="1202" type="curve" smooth="yes"/>
      <point x="118" y="1202"/>
      <point x="100" y="1186"/>
      <point x="101" y="1129" type="curve"/>
    </contour>
    <contour>
      <point x="533" y="-170" type="move" name="btm"/>
    </contour>
    <contour>
      <point x="533" y="1700" type="move" name="top"/>
    </contour>
  </outline>
</glyph>
<glyph name="w" format="1">
  <advance width="1509"/>
  <unicode hex="0077"/>
  <outline>
    <contour>
      <point x="926" y="57" type="line"/>
      <point x="937" y="8"/>
      <point x="952" y="0"/>
      <point x="1056" y="0" type="curve" smooth="yes"/>
      <point x="1160" y="0" type="line" smooth="yes"/>
      <point x="1264" y="0"/>
      <point x="1280" y="8"/>
      <point x="1290" y="57" type="curve" smooth="yes"/>
      <point x="1476" y="1129" type="line" smooth="yes"/>
      <point x="1488" y="1184"/>
      <point x="1460" y="1202"/>
      <point x="1324" y="1202" type="curve" smooth="yes"/>
      <point x="1188" y="1202"/>
      <point x="1170" y="1186"/>
      <point x="1166" y="1129" type="curve" smooth="yes"/>
      <point x="1101" y="240" type="line"/>
      <point x="1077" y="240" type="line"/>
      <point x="926" y="1129" type="line" smooth="yes"/>
      <point x="914" y="1186"/>
      <point x="899" y="1202"/>
      <point x="754" y="1202" type="curve" smooth="yes"/>
      <point x="618" y="1202"/>
      <point x="599" y="1186"/>
      <point x="588" y="1129" type="curve" smooth="yes"/>
      <point x="437" y="240" type="line"/>
      <point x="413" y="240" type="line"/>
      <point x="348" y="1129" type="line" smooth="yes"/>
      <point x="344" y="1187"/>
      <point x="331" y="1202"/>
      <point x="186" y="1202" type="curve" smooth="yes"/>
      <point x="50" y="1202"/>
      <point x="20" y="1184"/>
      <point x="34" y="1129" type="curve" smooth="yes"/>
      <point x="220" y="57" type="line" smooth="yes"/>
      <point x="233" y="9"/>
      <point x="246" y="0"/>
      <point x="350" y="0" type="curve" smooth="yes"/>
      <point x="452" y="0" type="line" smooth="yes"/>
      <point x="556" y="0"/>
      <point x="569" y="9"/>
      <point x="582" y="57" type="curve" smooth="yes"/>
      <point x="794" y="1087" type="line"/>
      <point x="713" y="1087" type="line"/>
    </contour>
    <contour>
      <point x="718" y="868" type="line"/>
      <point x="789" y="868" type="line"/>
      <point x="789" y="937" type="line"/>
      <point x="718" y="937" type="line"/>
    </contour>
    <contour>
      <point x="754" y="-170" type="move" name="btm"/>
    </contour>
    <contour>
      <point x="754" y="1700" type="move" name="top"/>
    </contour>
  </outline>
</glyph>
<glyph name="x" format="1">
  <advance width="978"/>
  <unicode hex="0078"/>
  <outline>
    <contour>
      <point x="202" y="0" type="curve" smooth="yes"/>
      <point x="306" y="0"/>
      <point x="320" y="7"/>
      <point x="338" y="57" type="curve" smooth="yes"/>
      <point x="483" y="454" type="line"/>
      <point x="497" y="454" type="line"/>
      <point x="640" y="57" type="line" smooth="yes"/>
      <point x="658" y="7"/>
      <point x="672" y="0"/>
      <point x="776" y="0" type="curve" smooth="yes"/>
      <point x="880" y="0"/>
      <point x="897" y="5"/>
      <point x="897" y="32" type="curve" smooth="yes"/>
      <point x="897" y="39"/>
      <point x="892" y="57"/>
      <point x="880" y="87" type="curve" smooth="yes"/>
      <point x="700" y="590" type="line"/>
      <point x="920" y="1094" type="line" smooth="yes"/>
      <point x="930" y="1118"/>
      <point x="938" y="1138"/>
      <point x="938" y="1153" type="curve" smooth="yes"/>
      <point x="938" y="1197"/>
      <point x="910" y="1202"/>
      <point x="794" y="1202" type="curve" smooth="yes"/>
      <point x="649" y="1202"/>
      <point x="634" y="1195"/>
      <point x="618" y="1141" type="curve" smooth="yes"/>
      <point x="497" y="719" type="line"/>
      <point x="483" y="719" type="line"/>
      <point x="360" y="1141" type="line" smooth="yes"/>
      <point x="344" y="1195"/>
      <point x="329" y="1202"/>
      <point x="184" y="1202" type="curve" smooth="yes"/>
      <point x="68" y="1202"/>
      <point x="40" y="1197"/>
      <point x="40" y="1153" type="curve" smooth="yes"/>
      <point x="40" y="1138"/>
      <point x="48" y="1118"/>
      <point x="58" y="1094" type="curve" smooth="yes"/>
      <point x="278" y="590" type="line"/>
      <point x="98" y="87" type="line" smooth="yes"/>
      <point x="87" y="57"/>
      <point x="81" y="39"/>
      <point x="81" y="32" type="curve" smooth="yes"/>
      <point x="81" y="5"/>
      <point x="98" y="0"/>
    </contour>
    <contour>
      <point x="489" y="-170" type="move" name="btm"/>
    </contour>
    <contour>
      <point x="489" y="1700" type="move" name="top"/>
    </contour>
  </outline>
</glyph>
<glyph name="y" format="1">
  <advance width="958"/>
  <unicode hex="0079"/>
  <outline>
    <contour>
      <point x="481" y="240" type="line"/>
      <point x="348" y="1129" type="line" smooth="yes"/>
      <point x="339" y="1186"/>
      <point x="331" y="1202"/>
      <point x="186" y="1202" type="curve" smooth="yes"/>
      <point x="41" y="1202"/>
      <point x="9" y="1184"/>
      <point x="24" y="1129" type="curve" smooth="yes"/>
      <point x="282" y="57" type="line" smooth="yes"/>
      <point x="295" y="9"/>
      <point x="316" y="0"/>
      <point x="396" y="0" type="curve" smooth="yes"/>
      <point x="532" y="0" type="line"/>
      <point x="692" y="57" type="line"/>
      <point x="934" y="1129" type="line" smooth="yes"/>
      <point x="949" y="1184"/>
      <point x="917" y="1202"/>
      <point x="772" y="1202" type="curve" smooth="yes"/>
      <point x="627" y="1202"/>
      <point x="619" y="1186"/>
      <point x="610" y="1129" type="curve" smooth="yes"/>
      <point x="505" y="240" type="line"/>
    </contour>
    <contour>
      <point x="463" y="119" type="line"/>
      <point x="369" y="-346" type="line" smooth="yes"/>
      <point x="360" y="-401"/>
      <point x="380" y="-419"/>
      <point x="471" y="-419" type="curve" smooth="yes"/>
      <point x="572" y="-419"/>
      <point x="589" y="-403"/>
      <point x="602" y="-346" type="curve" smooth="yes"/>
      <point x="706" y="119" type="line"/>
    </contour>
    <contour>
      <point x="479" y="-170" type="move" name="btm"/>
    </contour>
    <contour>
      <point x="479" y="1700" type="move" name="top"/>
    </contour>
  </outline>
</glyph>
<glyph name="braceleft" format="1">
  <advance width="775"/>
  <unicode hex="007B"/>
  <outline>
    <contour>
      <point x="120" y="624" type="line"/>
      <point x="204" y="624"/>
      <point x="256" y="597"/>
      <point x="259" y="497" type="curve" smooth="yes"/>
      <point x="271" y="46" type="line" smooth="yes"/>
      <point x="277" y="-175"/>
      <point x="354" y="-294"/>
      <point x="610" y="-294" type="curve" smooth="yes"/>
      <point x="663" y="-294" type="line" smooth="yes"/>
      <point x="713" y="-294"/>
      <point x="724" y="-287"/>
      <point x="724" y="-214" type="curve" smooth="yes"/>
      <point x="724" y="-141"/>
      <point x="719" y="-129"/>
      <point x="669" y="-128" type="curve" smooth="yes"/>
      <point x="627" y="-128" type="line" smooth="yes"/>
      <point x="506" y="-128"/>
      <point x="471" y="-72"/>
      <point x="474" y="46" type="curve" smooth="yes"/>
      <point x="483" y="425" type="line" smooth="yes"/>
      <point x="486" y="570"/>
      <point x="476" y="629"/>
      <point x="343" y="714" type="curve"/>
      <point x="343" y="722" type="line"/>
      <point x="480" y="804"/>
      <point x="492" y="905"/>
      <point x="494" y="1039" type="curve" smooth="yes"/>
      <point x="503" y="1540" type="line" smooth="yes"/>
      <point x="506" y="1684"/>
      <point x="530" y="1725"/>
      <point x="642" y="1725" type="curve" smooth="yes"/>
      <point x="696" y="1725" type="line" smooth="yes"/>
      <point x="743" y="1725"/>
      <point x="755" y="1737"/>
      <point x="755" y="1818" type="curve" smooth="yes"/>
      <point x="755" y="1891"/>
      <point x="751" y="1902"/>
      <point x="695" y="1902" type="curve" smooth="yes"/>
      <point x="576" y="1902" type="line" smooth="yes"/>
      <point x="288" y="1902"/>
      <point x="226" y="1748"/>
      <point x="231" y="1540" type="curve" smooth="yes"/>
      <point x="246" y="954" type="line" smooth="yes"/>
      <point x="249" y="847"/>
      <point x="202" y="804"/>
      <point x="120" y="804" type="curve" smooth="yes"/>
      <point x="102" y="804" type="line" smooth="yes"/>
      <point x="41" y="804"/>
      <point x="40" y="781"/>
      <point x="40" y="714" type="curve" smooth="yes"/>
      <point x="40" y="648"/>
      <point x="42" y="624"/>
      <point x="102" y="624" type="curve" smooth="yes"/>
    </contour>
  </outline>
</glyph>
<glyph name="cent" format="1">
  <advance width="1062"/>
  <unicode hex="00A2"/>
  <outline>
    <contour>
      <point x="655" y="1117" type="line"/>
      <point x="663" y="1458" type="line" smooth="yes"/>
      <point x="664" y="1515"/>
      <point x="647" y="1530"/>
      <point x="546" y="1530" type="curve" smooth="yes"/>
      <point x="446" y="1530"/>
      <point x="428" y="1514"/>
      <point x="429" y="1457" type="curve" smooth="yes"/>
      <point x="438" y="1117" type="line"/>
    </contour>
    <contour>
      <point x="455" y="79" type="line"/>
      <point x="462" y="-187" type="line" smooth="yes"/>
      <point x="463" y="-237"/>
      <point x="479" y="-245"/>
      <point x="547" y="-244" type="curve" smooth="yes"/>
      <point x="615" y="-244"/>
      <point x="631" y="-236"/>
      <point x="632" y="-186" type="curve" smooth="yes"/>
      <point x="639" y="79" type="line"/>
    </contour>
    <component base="c"/>
  </outline>
</glyph>
<glyph name="dieresis" format="1">
  <advance width="0"/>
  <unicode hex="00A8"/>
  <outline>
    <contour>
      <point x="-215" y="1407" type="curve" smooth="yes"/>
      <point x="-103" y="1407"/>
      <point x="-87" y="1414"/>
      <point x="-84" y="1464" type="curve" smooth="yes"/>
      <point x="-73" y="1635" type="line" smooth="yes"/>
      <point x="-70" y="1692"/>
      <point x="-88" y="1708"/>
      <point x="-215" y="1708" type="curve" smooth="yes"/>
      <point x="-342" y="1708"/>
      <point x="-361" y="1692"/>
      <point x="-357" y="1635" type="curve" smooth="yes"/>
      <point x="-345" y="1464" type="line" smooth="yes"/>
      <point x="-342" y="1414"/>
      <point x="-327" y="1407"/>
    </contour>
    <contour>
      <point x="215" y="1407" type="curve" smooth="yes"/>
      <point x="327" y="1407"/>
      <point x="343" y="1414"/>
      <point x="346" y="1464" type="curve" smooth="yes"/>
      <point x="357" y="1635" type="line" smooth="yes"/>
      <point x="360" y="1692"/>
      <point x="342" y="1708"/>
      <point x="215" y="1708" type="curve" smooth="yes"/>
      <point x="88" y="1708"/>
      <point x="69" y="1692"/>
      <point x="73" y="1635" type="curve" smooth="yes"/>
      <point x="85" y="1464" type="line" smooth="yes"/>
      <point x="88" y="1414"/>
      <point x="103" y="1407"/>
    </contour>
    <contour>
      <point x="0" y="1700" type="move" name="_top"/>
    </contour>
  </outline>
</glyph>
<glyph name="copyright" format="1">
  <advance width="1865"/>
  <unicode hex="00A9"/>
  <outline>
    <contour>
      <point x="1263" y="631" type="line"/>
      <point x="1261" y="528"/>
      <point x="1166" y="442"/>
      <point x="933" y="442" type="curve" smooth="yes"/>
      <point x="700" y="442"/>
      <point x="605" y="528"/>
      <point x="603" y="633" type="curve"/>
      <point x="586" y="1235" type="line" smooth="yes"/>
      <point x="583" y="1354"/>
      <point x="686" y="1444"/>
      <point x="933" y="1444" type="curve" smooth="yes"/>
      <point x="1180" y="1444"/>
      <point x="1283" y="1354"/>
      <point x="1280" y="1235" type="curve" smooth="yes"/>
      <point x="1273" y="968" type="line" smooth="yes"/>
      <point x="1272" y="919"/>
      <point x="1239" y="913"/>
      <point x="1145" y="913" type="curve" smooth="yes"/>
      <point x="1047" y="913"/>
      <point x="1020" y="919"/>
      <point x="1019" y="968" type="curve"/>
      <point x="1010" y="1222" type="line" smooth="yes"/>
      <point x="1008" y="1291"/>
      <point x="984" y="1301"/>
      <point x="933" y="1301" type="curve" smooth="yes"/>
      <point x="882" y="1301"/>
      <point x="857" y="1291"/>
      <point x="856" y="1222" type="curve"/>
      <point x="837" y="652" type="line"/>
      <point x="836" y="584"/>
      <point x="863" y="563"/>
      <point x="933" y="563" type="curve" smooth="yes"/>
      <point x="1003" y="563"/>
      <point x="1030" y="584"/>
      <point x="1028" y="652" type="curve"/>
      <point x="1026" y="688" type="line" smooth="yes"/>
      <point x="1024" y="738"/>
      <point x="1054" y="745"/>
      <point x="1151" y="745" type="curve" smooth="yes"/>
      <point x="1250" y="745"/>
      <point x="1266" y="738"/>
      <point x="1265" y="688" type="curve" smooth="yes"/>
    </contour>
    <contour>
      <point x="932" y="1897" type="curve" smooth="yes"/>
      <point x="517" y="1897"/>
      <point x="146" y="1709"/>
      <point x="151" y="1299" type="curve" smooth="yes"/>
      <point x="159" y="643" type="line" smooth="yes"/>
      <point x="164" y="224"/>
      <point x="501" y="71"/>
      <point x="932" y="71" type="curve" smooth="yes"/>
      <point x="1364" y="71"/>
      <point x="1701" y="224"/>
      <point x="1706" y="643" type="curve" smooth="yes"/>
      <point x="1714" y="1299" type="line" smooth="yes"/>
      <point x="1719" y="1709"/>
      <point x="1348" y="1897"/>
    </contour>
    <contour>
      <point x="932" y="221" type="curve" smooth="yes"/>
      <point x="640" y="221"/>
      <point x="363" y="324"/>
      <point x="367" y="643" type="curve" smooth="yes"/>
      <point x="375" y="1275" type="line" smooth="yes"/>
      <point x="379" y="1594"/>
      <point x="625" y="1697"/>
      <point x="932" y="1697" type="curve" smooth="yes"/>
      <point x="1240" y="1697"/>
      <point x="1486" y="1594"/>
      <point x="1490" y="1275" type="curve" smooth="yes"/>
      <point x="1498" y="643" type="line" smooth="yes"/>
      <point x="1502" y="324"/>
      <point x="1225" y="221"/>
    </contour>
  </outline>
</glyph>
<glyph name="ordfeminine" format="1">
  <advance width="957"/>
  <unicode hex="00AA"/>
  <outline>
    <contour>
      <point x="826" y="1327" type="line"/>
      <point x="830" y="1456"/>
      <point x="696" y="1530"/>
      <point x="487" y="1530" type="curve" smooth="yes"/>
      <point x="358" y="1530"/>
      <point x="136" y="1485"/>
      <point x="143" y="1336" type="curve" smooth="yes"/>
      <point x="149" y="1212" type="line" smooth="yes"/>
      <point x="151" y="1178"/>
      <point x="167" y="1165"/>
      <point x="274" y="1165" type="curve" smooth="yes"/>
      <point x="383" y="1165"/>
      <point x="399" y="1178"/>
      <point x="401" y="1213" type="curve" smooth="yes"/>
      <point x="406" y="1318" type="line" smooth="yes"/>
      <point x="409" y="1380"/>
      <point x="436" y="1392"/>
      <point x="483" y="1392" type="curve" smooth="yes"/>
      <point x="534" y="1392"/>
      <point x="553" y="1376"/>
      <point x="555" y="1317" type="curve" smooth="yes"/>
      <point x="572" y="811" type="line"/>
      <point x="581" y="786" type="line"/>
      <point x="583" y="720" type="line" smooth="yes"/>
      <point x="584" y="685"/>
      <point x="597" y="680"/>
      <point x="685" y="680" type="curve" smooth="yes"/>
      <point x="785" y="680"/>
      <point x="800" y="685"/>
      <point x="801" y="720" type="curve" smooth="yes"/>
    </contour>
    <contour>
      <point x="623" y="1122" type="line"/>
      <point x="543" y="1122"/>
      <point x="438" y="1107"/>
      <point x="331" y="1076" type="curve" smooth="yes"/>
      <point x="260" y="1052"/>
      <point x="130" y="994"/>
      <point x="130" y="890" type="curve" smooth="yes"/>
      <point x="130" y="858" type="line" smooth="yes"/>
      <point x="130" y="759"/>
      <point x="177" y="672"/>
      <point x="319" y="672" type="curve" smooth="yes"/>
      <point x="504" y="672"/>
      <point x="641" y="784"/>
      <point x="666" y="809" type="curve"/>
      <point x="632" y="879" type="line"/>
      <point x="600" y="862"/>
      <point x="528" y="823"/>
      <point x="453" y="823" type="curve" smooth="yes"/>
      <point x="414" y="823"/>
      <point x="385" y="848"/>
      <point x="385" y="894" type="curve" smooth="yes"/>
      <point x="385" y="941"/>
      <point x="412" y="970"/>
      <point x="483" y="989" type="curve" smooth="yes"/>
      <point x="523" y="1000"/>
      <point x="577" y="1005"/>
      <point x="612" y="1009" type="curve"/>
    </contour>
  </outline>
</glyph>
<glyph name="macron" format="1">
  <advance width="0"/>
  <unicode hex="00AF"/>
  <outline>
    <contour>
      <point x="271" y="1439" type="line"/>
      <point x="341" y="1439"/>
      <point x="343" y="1464"/>
      <point x="343" y="1546" type="curve" smooth="yes"/>
      <point x="343" y="1636"/>
      <point x="341" y="1665"/>
      <point x="271" y="1665" type="curve" smooth="yes"/>
      <point x="-265" y="1665" type="line" smooth="yes"/>
      <point x="-335" y="1665"/>
      <point x="-337" y="1637"/>
      <point x="-337" y="1547" type="curve" smooth="yes"/>
      <point x="-337" y="1465"/>
      <point x="-335" y="1439"/>
      <point x="-265" y="1439" type="curve" smooth="yes"/>
    </contour>
    <contour>
      <point x="0" y="1700" type="move" name="_top"/>
    </contour>
  </outline>
</glyph>
<glyph name="degree" format="1">
  <advance width="849"/>
  <unicode hex="00B0"/>
  <outline>
    <contour>
      <point x="424" y="1699" type="curve" smooth="yes"/>
      <point x="239" y="1699"/>
      <point x="69" y="1633"/>
      <point x="80" y="1463" type="curve" smooth="yes"/>
      <point x="96" y="1222" type="line" smooth="yes"/>
      <point x="106" y="1065"/>
      <point x="261" y="1020"/>
      <point x="424" y="1020" type="curve" smooth="yes"/>
      <point x="586" y="1020"/>
      <point x="743" y="1065"/>
      <point x="752" y="1222" type="curve" smooth="yes"/>
      <point x="766" y="1463" type="line" smooth="yes"/>
      <point x="776" y="1633"/>
      <point x="607" y="1699"/>
    </contour>
    <contour>
      <point x="424" y="1150" type="curve" smooth="yes"/>
      <point x="357" y="1150"/>
      <point x="310" y="1178"/>
      <point x="314" y="1263" type="curve" smooth="yes"/>
      <point x="323" y="1463" type="line" smooth="yes"/>
      <point x="327" y="1540"/>
      <point x="358" y="1559"/>
      <point x="424" y="1559" type="curve" smooth="yes"/>
      <point x="488" y="1559"/>
      <point x="520" y="1540"/>
      <point x="524" y="1463" type="curve" smooth="yes"/>
      <point x="533" y="1263" type="line" smooth="yes"/>
      <point x="537" y="1178"/>
      <point x="489" y="1150"/>
    </contour>
    <contour>
      <point x="373" y="1700" type="move" name="_top"/>
    </contour>
  </outline>
</glyph>
<glyph name="plusminus" format="1">
  <advance width="1058"/>
  <unicode hex="00B1"/>
  <outline>
    <contour>
      <point x="844" y="169" type="line"/>
      <point x="912" y="169"/>
      <point x="916" y="188"/>
      <point x="916" y="258" type="curve" smooth="yes"/>
      <point x="916" y="336"/>
      <point x="913" y="359"/>
      <point x="844" y="359" type="curve" smooth="yes"/>
      <point x="214" y="359" type="line" smooth="yes"/>
      <point x="146" y="359"/>
      <point x="142" y="337"/>
      <point x="142" y="259" type="curve" smooth="yes"/>
      <point x="142" y="189"/>
      <point x="145" y="169"/>
      <point x="214" y="169" type="curve" smooth="yes"/>
    </contour>
    <component base="plus" xOffset="40" yOffset="203"/>
  </outline>
</glyph>
<glyph name="threesuperior" format="1">
  <advance width="869"/>
  <unicode hex="00B3"/>
  <outline>
    <contour>
      <point x="450" y="1048" type="line"/>
      <point x="493" y="1048"/>
      <point x="514" y="1039"/>
      <point x="516" y="991" type="curve" smooth="yes"/>
      <point x="519" y="907" type="line" smooth="yes"/>
      <point x="524" y="829"/>
      <point x="491" y="819"/>
      <point x="453" y="819" type="curve" smooth="yes"/>
      <point x="386" y="819"/>
      <point x="365" y="827"/>
      <point x="367" y="879" type="curve" smooth="yes"/>
      <point x="368" y="925" type="line" smooth="yes"/>
      <point x="370" y="973"/>
      <point x="336" y="980"/>
      <point x="235" y="980" type="curve" smooth="yes"/>
      <point x="118" y="980"/>
      <point x="95" y="973"/>
      <point x="96" y="924" type="curve" smooth="yes"/>
      <point x="98" y="829" type="line" smooth="yes"/>
      <point x="100" y="743"/>
      <point x="181" y="672"/>
      <point x="430" y="672" type="curve" smooth="yes"/>
      <point x="688" y="672"/>
      <point x="770" y="752"/>
      <point x="772" y="846" type="curve" smooth="yes"/>
      <point x="776" y="968" type="line" smooth="yes"/>
      <point x="779" y="1053"/>
      <point x="734" y="1083"/>
      <point x="616" y="1128" type="curve"/>
      <point x="616" y="1133" type="line"/>
      <point x="758" y="1178"/>
      <point x="772" y="1235"/>
      <point x="774" y="1301" type="curve" smooth="yes"/>
      <point x="782" y="1523" type="line"/>
      <point x="785" y="1656"/>
      <point x="581" y="1700"/>
      <point x="430" y="1700" type="curve" smooth="yes"/>
      <point x="283" y="1700"/>
      <point x="78" y="1656"/>
      <point x="81" y="1523" type="curve"/>
      <point x="94" y="1323" type="line"/>
      <point x="95" y="1274"/>
      <point x="126" y="1268"/>
      <point x="225" y="1268" type="curve" smooth="yes"/>
      <point x="316" y="1268"/>
      <point x="343" y="1274"/>
      <point x="344" y="1323" type="curve"/>
      <point x="352" y="1468" type="line" smooth="yes"/>
      <point x="354" y="1531"/>
      <point x="371" y="1548"/>
      <point x="430" y="1548" type="curve" smooth="yes"/>
      <point x="482" y="1548"/>
      <point x="494" y="1530"/>
      <point x="499" y="1468" type="curve" smooth="yes"/>
      <point x="507" y="1277" type="line" smooth="yes"/>
      <point x="509" y="1224"/>
      <point x="488" y="1207"/>
      <point x="451" y="1207" type="curve" smooth="yes"/>
      <point x="413" y="1207" type="line" smooth="yes"/>
      <point x="370" y="1207"/>
      <point x="369" y="1186"/>
      <point x="369" y="1129" type="curve" smooth="yes"/>
      <point x="369" y="1065"/>
      <point x="370" y="1048"/>
      <point x="412" y="1048" type="curve" smooth="yes"/>
    </contour>
  </outline>
</glyph>
<glyph name="cedilla" format="1">
  <advance width="0"/>
  <unicode hex="00B8"/>
  <outline>
    <contour>
      <point x="-218" y="-309" type="curve" smooth="yes"/>
      <point x="-218" y="-330"/>
      <point x="-208" y="-340"/>
      <point x="-177" y="-340" type="curve" smooth="yes"/>
      <point x="-79" y="-340" type="line" smooth="yes"/>
      <point x="-40" y="-340"/>
      <point x="-27" y="-337"/>
      <point x="-9" y="-292" type="curve" smooth="yes"/>
      <point x="157" y="86" type="line"/>
      <point x="-79" y="86" type="line"/>
      <point x="-198" y="-249" type="line" smooth="yes"/>
      <point x="-207" y="-276"/>
      <point x="-218" y="-297"/>
    </contour>
    <contour>
      <point x="0" y="-170" type="move" name="_btm"/>
    </contour>
  </outline>
</glyph>
<glyph name="onesuperior" format="1">
  <advance width="614"/>
  <unicode hex="00B9"/>
  <outline>
    <contour>
      <point x="365" y="1685" type="curve" smooth="yes"/>
      <point x="269" y="1685"/>
      <point x="244" y="1675"/>
      <point x="228" y="1662" type="curve" smooth="yes"/>
      <point x="220" y="1655"/>
      <point x="218" y="1643"/>
      <point x="218" y="1627" type="curve" smooth="yes"/>
      <point x="219" y="1578" type="line"/>
      <point x="230" y="1551" type="line"/>
      <point x="245" y="712" type="line" smooth="yes"/>
      <point x="246" y="675"/>
      <point x="265" y="671"/>
      <point x="365" y="671" type="curve" smooth="yes"/>
      <point x="439" y="671"/>
      <point x="466" y="675"/>
      <point x="467" y="712" type="curve" smooth="yes"/>
      <point x="493" y="1628" type="line" smooth="yes"/>
      <point x="494" y="1669"/>
      <point x="478" y="1685"/>
    </contour>
    <contour>
      <point x="60" y="1285" type="line"/>
      <point x="60" y="1252"/>
      <point x="72" y="1248"/>
      <point x="83" y="1248" type="curve" smooth="yes"/>
      <point x="91" y="1248"/>
      <point x="105" y="1255"/>
      <point x="118" y="1268" type="curve" smooth="yes"/>
      <point x="307" y="1456" type="line"/>
      <point x="228" y="1662" type="line"/>
      <point x="87" y="1513" type="line" smooth="yes"/>
      <point x="68" y="1493"/>
      <point x="60" y="1478"/>
      <point x="60" y="1441" type="curve" smooth="yes"/>
    </contour>
  </outline>
</glyph>
<glyph name="ordmasculine" format="1">
  <advance width="954"/>
  <unicode hex="00BA"/>
  <outline>
    <contour>
      <point x="477" y="682" type="curve" smooth="yes"/>
      <point x="306" y="682"/>
      <point x="146" y="731"/>
      <point x="140" y="884" type="curve" smooth="yes"/>
      <point x="121" y="1316" type="line" smooth="yes"/>
      <point x="115" y="1465"/>
      <point x="293" y="1529"/>
      <point x="477" y="1529" type="curve" smooth="yes"/>
      <point x="661" y="1529"/>
      <point x="839" y="1465"/>
      <point x="833" y="1316" type="curve" smooth="yes"/>
      <point x="814" y="884" type="line"/>
      <point x="808" y="731"/>
      <point x="648" y="682"/>
    </contour>
    <contour>
      <point x="477" y="1391" type="curve" smooth="yes"/>
      <point x="427" y="1391"/>
      <point x="399" y="1386"/>
      <point x="392" y="1307" type="curve" smooth="yes"/>
      <point x="376" y="902" type="line" smooth="yes"/>
      <point x="374" y="831"/>
      <point x="406" y="814"/>
      <point x="477" y="814" type="curve" smooth="yes"/>
      <point x="548" y="814"/>
      <point x="580" y="831"/>
      <point x="578" y="902" type="curve"/>
      <point x="562" y="1307" type="line"/>
      <point x="555" y="1386"/>
      <point x="527" y="1391"/>
    </contour>
  </outline>
</glyph>
<glyph name="onequarter" format="1">
  <advance width="1699"/>
  <unicode hex="00BC"/>
  <outline>
    <contour>
      <point x="1348" y="1033" type="curve" smooth="yes"/>
      <point x="1230" y="1033"/>
      <point x="1193" y="1026"/>
      <point x="1175" y="976" type="curve" smooth="yes"/>
      <point x="945" y="345" type="line" smooth="yes"/>
      <point x="936" y="321"/>
      <point x="927" y="299"/>
      <point x="927" y="275" type="curve" smooth="yes"/>
      <point x="927" y="255" type="line" smooth="yes"/>
      <point x="927" y="229"/>
      <point x="971" y="218"/>
      <point x="995" y="218" type="curve" smooth="yes"/>
      <point x="1102" y="218"/>
      <point x="1114" y="231"/>
      <point x="1130" y="276" type="curve"/>
      <point x="1463" y="971" type="line"/>
      <point x="1478" y="1014"/>
      <point x="1447" y="1033"/>
    </contour>
    <contour>
      <point x="1530" y="218" type="line"/>
      <point x="1530" y="389" type="line"/>
      <point x="1036" y="389" type="line"/>
      <point x="995" y="218" type="line"/>
    </contour>
    <contour>
      <point x="1508" y="599" type="curve" smooth="yes"/>
      <point x="1415" y="599"/>
      <point x="1377" y="590"/>
      <point x="1378" y="549" type="curve" smooth="yes"/>
      <point x="1392" y="40" type="line" smooth="yes"/>
      <point x="1393" y="3"/>
      <point x="1412" y="-1"/>
      <point x="1496" y="-1" type="curve" smooth="yes"/>
      <point x="1577" y="-1"/>
      <point x="1611" y="3"/>
      <point x="1612" y="40" type="curve" smooth="yes"/>
      <point x="1627" y="550" type="line" smooth="yes"/>
      <point x="1628" y="592"/>
      <point x="1619" y="599"/>
    </contour>
    <component base="fraction" xOffset="550"/>
    <component base="onesuperior" xOffset="40"/>
  </outline>
</glyph>
<glyph name="onehalf" format="1">
  <advance width="1810"/>
  <unicode hex="00BD"/>
  <outline>
    <contour>
      <point x="1660" y="172" type="line" smooth="yes"/>
      <point x="1701" y="172"/>
      <point x="1704" y="138"/>
      <point x="1704" y="87" type="curve" smooth="yes"/>
      <point x="1704" y="29"/>
      <point x="1702" y="1"/>
      <point x="1660" y="1" type="curve" smooth="yes"/>
      <point x="1083" y="1" type="line" smooth="yes"/>
      <point x="1048" y="1"/>
      <point x="1039" y="8"/>
      <point x="1039" y="41" type="curve" smooth="yes"/>
      <point x="1039" y="59" type="line" smooth="yes"/>
      <point x="1039" y="87"/>
      <point x="1046" y="102"/>
      <point x="1058" y="118" type="curve"/>
      <point x="1385" y="489" type="line"/>
      <point x="1419" y="533"/>
      <point x="1434" y="555"/>
      <point x="1431" y="617" type="curve"/>
      <point x="1425" y="790" type="line" smooth="yes"/>
      <point x="1423" y="859"/>
      <point x="1396" y="868"/>
      <point x="1355" y="868" type="curve" smooth="yes"/>
      <point x="1306" y="868"/>
      <point x="1278" y="859"/>
      <point x="1276" y="789" type="curve" smooth="yes"/>
      <point x="1269" y="580" type="line" smooth="yes"/>
      <point x="1267" y="531"/>
      <point x="1240" y="525"/>
      <point x="1149" y="525" type="curve" smooth="yes"/>
      <point x="1051" y="525"/>
      <point x="1025" y="532"/>
      <point x="1022" y="580" type="curve" smooth="yes"/>
      <point x="1007" y="830" type="line" smooth="yes"/>
      <point x="1000" y="949"/>
      <point x="1135" y="1022"/>
      <point x="1355" y="1022" type="curve" smooth="yes"/>
      <point x="1576" y="1022"/>
      <point x="1714" y="950"/>
      <point x="1709" y="830" type="curve" smooth="yes"/>
      <point x="1697" y="574" type="line" smooth="yes"/>
      <point x="1695" y="519"/>
      <point x="1676" y="482"/>
      <point x="1630" y="433" type="curve"/>
      <point x="1366" y="177" type="line"/>
      <point x="1366" y="172" type="line"/>
    </contour>
    <component base="fraction" xOffset="550"/>
    <component base="onesuperior" xOffset="40"/>
  </outline>
</glyph>
<glyph name="questiondown" format="1">
  <advance width="1189"/>
  <unicode hex="00BF"/>
  <outline>
    <contour>
      <point x="715" y="1071" type="line"/>
      <point x="711" y="1023"/>
      <point x="709" y="1002"/>
      <point x="683" y="980" type="curve" smooth="yes"/>
      <point x="527" y="845" type="line" smooth="yes"/>
      <point x="439" y="770"/>
      <point x="440" y="751"/>
      <point x="436" y="619" type="curve" smooth="yes"/>
      <point x="427" y="295" type="line" smooth="yes"/>
      <point x="424" y="176"/>
      <point x="490" y="154"/>
      <point x="594" y="154" type="curve" smooth="yes"/>
      <point x="701" y="154"/>
      <point x="759" y="180"/>
      <point x="753" y="299" type="curve"/>
      <point x="743" y="670" type="line" smooth="yes"/>
      <point x="741" y="753"/>
      <point x="777" y="764"/>
      <point x="895" y="764" type="curve" smooth="yes"/>
      <point x="1020" y="764"/>
      <point x="1061" y="753"/>
      <point x="1059" y="670" type="curve" smooth="yes"/>
      <point x="1051" y="323" type="line" smooth="yes"/>
      <point x="1046" y="119"/>
      <point x="905" y="-12"/>
      <point x="594" y="-12" type="curve" smooth="yes"/>
      <point x="291" y="-12"/>
      <point x="134" y="114"/>
      <point x="129" y="318" type="curve" smooth="yes"/>
      <point x="121" y="642" type="line" smooth="yes"/>
      <point x="119" y="734"/>
      <point x="168" y="784"/>
      <point x="253" y="857" type="curve" smooth="yes"/>
      <point x="459" y="1034" type="line"/>
      <point x="449" y="1194" type="line" smooth="yes"/>
      <point x="445" y="1264"/>
      <point x="492" y="1266"/>
      <point x="582" y="1266" type="curve" smooth="yes"/>
      <point x="690" y="1266"/>
      <point x="725" y="1263"/>
      <point x="721" y="1193" type="curve" smooth="yes"/>
    </contour>
    <contour>
      <point x="578" y="1399" type="curve" smooth="yes"/>
      <point x="708" y="1399"/>
      <point x="726" y="1406"/>
      <point x="729" y="1456" type="curve" smooth="yes"/>
      <point x="740" y="1651" type="line" smooth="yes"/>
      <point x="743" y="1708"/>
      <point x="723" y="1724"/>
      <point x="578" y="1724" type="curve" smooth="yes"/>
      <point x="433" y="1724"/>
      <point x="412" y="1708"/>
      <point x="416" y="1651" type="curve" smooth="yes"/>
      <point x="428" y="1456" type="line" smooth="yes"/>
      <point x="431" y="1406"/>
      <point x="448" y="1399"/>
    </contour>
  </outline>
</glyph>
<glyph name="AE" format="1">
  <advance width="1440"/>
  <unicode hex="00C6"/>
  <outline>
    <contour>
      <point x="617" y="1690" type="line"/>
      <point x="425" y="1690"/>
      <point x="402" y="1673"/>
      <point x="385" y="1598" type="curve" smooth="yes"/>
      <point x="43" y="78" type="line" smooth="yes"/>
      <point x="31" y="7"/>
      <point x="67" y="0"/>
      <point x="172" y="0" type="curve" smooth="yes"/>
      <point x="283" y="0"/>
      <point x="298" y="8"/>
      <point x="316" y="78" type="curve" smooth="yes"/>
      <point x="678" y="1494" type="line"/>
      <point x="938" y="1494" type="line"/>
      <point x="938" y="1690" type="line"/>
    </contour>
    <contour>
      <point x="287" y="317" type="line"/>
      <point x="878" y="317" type="line"/>
      <point x="878" y="507" type="line"/>
      <point x="287" y="507" type="line"/>
    </contour>
    <contour>
      <point x="864" y="1" type="curve"/>
      <point x="987" y="1"/>
      <point x="1001" y="12"/>
      <point x="1003" y="64" type="curve" smooth="yes"/>
      <point x="1046" y="1608" type="line" smooth="yes"/>
      <point x="1048" y="1677"/>
      <point x="1023" y="1690"/>
      <point x="864" y="1690" type="curve" smooth="yes"/>
      <point x="715" y="1690"/>
      <point x="690" y="1677"/>
      <point x="692" y="1608" type="curve" smooth="yes"/>
      <point x="736" y="69" type="line" smooth="yes"/>
      <point x="738" y="8"/>
      <point x="750" y="1"/>
    </contour>
    <contour>
      <point x="865" y="1494" type="line"/>
      <point x="1328" y="1494" type="line" smooth="yes"/>
      <point x="1397" y="1494"/>
      <point x="1399" y="1511"/>
      <point x="1399" y="1592" type="curve" smooth="yes"/>
      <point x="1399" y="1672"/>
      <point x="1397" y="1690"/>
      <point x="1328" y="1690" type="curve" smooth="yes"/>
      <point x="865" y="1690" type="line"/>
    </contour>
    <contour>
      <point x="804" y="690" type="line"/>
      <point x="1266" y="690" type="line" smooth="yes"/>
      <point x="1336" y="690"/>
      <point x="1337" y="707"/>
      <point x="1337" y="785" type="curve" smooth="yes"/>
      <point x="1337" y="863"/>
      <point x="1336" y="880"/>
      <point x="1266" y="880" type="curve" smooth="yes"/>
      <point x="804" y="880" type="line"/>
    </contour>
    <contour>
      <point x="864" y="1" type="line"/>
      <point x="1290" y="1" type="line" smooth="yes"/>
      <point x="1359" y="1"/>
      <point x="1361" y="22"/>
      <point x="1361" y="94" type="curve" smooth="yes"/>
      <point x="1361" y="167"/>
      <point x="1359" y="187"/>
      <point x="1290" y="187" type="curve" smooth="yes"/>
      <point x="864" y="187" type="line"/>
    </contour>
    <contour>
      <point x="719" y="-170" type="move" name="btm"/>
    </contour>
    <contour>
      <point x="719" y="1700" type="move" name="top"/>
    </contour>
  </outline>
</glyph>
<glyph name="Oslash" format="1">
  <advance width="1208"/>
  <unicode hex="00D8"/>
  <outline>
    <contour>
      <point x="922" y="1542" type="line"/>
      <point x="1076" y="1927" type="line" smooth="yes"/>
      <point x="1097" y="1979"/>
      <point x="1070" y="1996"/>
      <point x="956" y="1997" type="curve" smooth="yes"/>
      <point x="841" y="1998"/>
      <point x="832" y="1979"/>
      <point x="814" y="1926" type="curve" smooth="yes"/>
      <point x="725" y="1653" type="line"/>
    </contour>
    <contour>
      <point x="292" y="175" type="line"/>
      <point x="168" y="-207" type="line"/>
      <point x="147" y="-252"/>
      <point x="166" y="-264"/>
      <point x="254" y="-265" type="curve" smooth="yes"/>
      <point x="325" y="-266"/>
      <point x="350" y="-262"/>
      <point x="369" y="-216" type="curve" smooth="yes"/>
      <point x="495" y="91" type="line"/>
    </contour>
    <component base="O"/>
  </outline>
</glyph>
<glyph name="Thorn" format="1">
  <advance width="1180"/>
  <unicode hex="00DE"/>
  <outline>
    <contour>
      <point x="238" y="299" type="line"/>
      <point x="623" y="299" type="line" smooth="yes"/>
      <point x="956" y="299"/>
      <point x="1062" y="465"/>
      <point x="1066" y="617" type="curve" smooth="yes"/>
      <point x="1080" y="1093" type="line" smooth="yes"/>
      <point x="1087" y="1324"/>
      <point x="873" y="1418"/>
      <point x="600" y="1418" type="curve" smooth="yes"/>
      <point x="332" y="1418" type="line"/>
      <point x="332" y="1246" type="line"/>
      <point x="567" y="1246" type="line" smooth="yes"/>
      <point x="696" y="1246"/>
      <point x="725" y="1228"/>
      <point x="728" y="1124" type="curve" smooth="yes"/>
      <point x="742" y="610" type="line" smooth="yes"/>
      <point x="744" y="498"/>
      <point x="707" y="462"/>
      <point x="578" y="462" type="curve" smooth="yes"/>
      <point x="238" y="462" type="line"/>
    </contour>
    <contour>
      <point x="307" y="0" type="curve" smooth="yes"/>
      <point x="430" y="0"/>
      <point x="444" y="7"/>
      <point x="445" y="68" type="curve" smooth="yes"/>
      <point x="489" y="1607" type="line" smooth="yes"/>
      <point x="491" y="1676"/>
      <point x="465" y="1690"/>
      <point x="307" y="1690" type="curve" smooth="yes"/>
      <point x="148" y="1690"/>
      <point x="123" y="1676"/>
      <point x="125" y="1607" type="curve" smooth="yes"/>
      <point x="168" y="68" type="line" smooth="yes"/>
      <point x="170" y="7"/>
      <point x="184" y="0"/>
    </contour>
  </outline>
</glyph>
<glyph name="germandbls" format="1">
  <advance width="1105"/>
  <unicode hex="00DF"/>
  <outline>
    <contour>
      <point x="621" y="157" type="line"/>
      <point x="566" y="157"/>
      <point x="559" y="143"/>
      <point x="559" y="77" type="curve" smooth="yes"/>
      <point x="559" y="11"/>
      <point x="566" y="0"/>
      <point x="621" y="0" type="curve" smooth="yes"/>
      <point x="728" y="0" type="line" smooth="yes"/>
      <point x="956" y="0"/>
      <point x="1024" y="152"/>
      <point x="1027" y="277" type="curve" smooth="yes"/>
      <point x="1030" y="406" type="line" smooth="yes"/>
      <point x="1032" y="503"/>
      <point x="985" y="565"/>
      <point x="902" y="629" type="curve" smooth="yes"/>
      <point x="791" y="716" type="line"/>
      <point x="791" y="728" type="line"/>
      <point x="914" y="891" type="line" smooth="yes"/>
      <point x="984" y="984"/>
      <point x="989" y="1039"/>
      <point x="989" y="1156" type="curve" smooth="yes"/>
      <point x="998" y="1432" type="line" smooth="yes"/>
      <point x="999" y="1633"/>
      <point x="790" y="1724"/>
      <point x="571" y="1724" type="curve" smooth="yes"/>
      <point x="317" y="1724"/>
      <point x="137" y="1613"/>
      <point x="140" y="1440" type="curve" smooth="yes"/>
      <point x="163" y="-115" type="line" smooth="yes"/>
      <point x="164" y="-165"/>
      <point x="181" y="-172"/>
      <point x="293" y="-172" type="curve" smooth="yes"/>
      <point x="405" y="-172"/>
      <point x="423" y="-165"/>
      <point x="424" y="-115" type="curve" smooth="yes"/>
      <point x="455" y="1447" type="line" smooth="yes"/>
      <point x="457" y="1554"/>
      <point x="507" y="1570"/>
      <point x="573" y="1570" type="curve" smooth="yes"/>
      <point x="653" y="1570"/>
      <point x="676" y="1536"/>
      <point x="680" y="1438" type="curve" smooth="yes"/>
      <point x="694" y="998" type="line" smooth="yes"/>
      <point x="696" y="927"/>
      <point x="694" y="910"/>
      <point x="657" y="857" type="curve" smooth="yes"/>
      <point x="599" y="768" type="line" smooth="yes"/>
      <point x="583" y="746"/>
      <point x="582" y="739"/>
      <point x="582" y="718" type="curve" smooth="yes"/>
      <point x="582" y="682" type="line" smooth="yes"/>
      <point x="582" y="654"/>
      <point x="592" y="647"/>
      <point x="626" y="618" type="curve" smooth="yes"/>
      <point x="688" y="565" type="line" smooth="yes"/>
      <point x="731" y="528"/>
      <point x="747" y="495"/>
      <point x="750" y="407" type="curve" smooth="yes"/>
      <point x="754" y="294" type="line" smooth="yes"/>
      <point x="757" y="192"/>
      <point x="732" y="157"/>
      <point x="636" y="157" type="curve" smooth="yes"/>
    </contour>
  </outline>
</glyph>
<glyph name="eth" format="1">
  <advance width="1082"/>
  <unicode hex="00F0"/>
  <outline>
    <contour>
      <point x="593" y="1214" type="curve" smooth="yes"/>
      <point x="238" y="1214"/>
      <point x="103" y="1123"/>
      <point x="111" y="910" type="curve" smooth="yes"/>
      <point x="134" y="276" type="line" smooth="yes"/>
      <point x="142" y="58"/>
      <point x="335" y="-12"/>
      <point x="542" y="-12" type="curve" smooth="yes"/>
      <point x="747" y="-12"/>
      <point x="940" y="59"/>
      <point x="948" y="277" type="curve"/>
      <point x="967" y="880" type="line"/>
      <point x="967" y="880"/>
      <point x="815" y="1214"/>
    </contour>
    <contour>
      <point x="541" y="132" type="curve" smooth="yes"/>
      <point x="448" y="132"/>
      <point x="405" y="166"/>
      <point x="408" y="268" type="curve" smooth="yes"/>
      <point x="428" y="927" type="line" smooth="yes"/>
      <point x="431" y="1040"/>
      <point x="475" y="1058"/>
      <point x="541" y="1058" type="curve" smooth="yes"/>
      <point x="607" y="1058"/>
      <point x="651" y="1040"/>
      <point x="654" y="927" type="curve" smooth="yes"/>
      <point x="674" y="269" type="line" smooth="yes"/>
      <point x="677" y="167"/>
      <point x="634" y="132"/>
    </contour>
    <contour>
      <point x="655" y="1110" type="line"/>
      <point x="655" y="1110"/>
      <point x="966" y="880"/>
      <point x="966" y="880" type="curve"/>
      <point x="974" y="947"/>
      <point x="959" y="1017"/>
      <point x="933" y="1091" type="curve" smooth="yes"/>
      <point x="853" y="1314"/>
      <point x="653" y="1560"/>
      <point x="556" y="1782" type="curve"/>
      <point x="520" y="1867"/>
      <point x="476" y="1870"/>
      <point x="359" y="1870" type="curve" smooth="yes"/>
      <point x="242" y="1870"/>
      <point x="175" y="1862"/>
      <point x="185" y="1812" type="curve" smooth="yes"/>
      <point x="190" y="1786"/>
      <point x="211" y="1759"/>
      <point x="234" y="1725" type="curve" smooth="yes"/>
    </contour>
    <contour>
      <point x="804" y="1620" type="line"/>
      <point x="864" y="1656"/>
      <point x="858" y="1670"/>
      <point x="820" y="1734" type="curve" smooth="yes"/>
      <point x="782" y="1798"/>
      <point x="772" y="1810"/>
      <point x="712" y="1775" type="curve" smooth="yes"/>
      <point x="246" y="1498" type="line" smooth="yes"/>
      <point x="186" y="1462"/>
      <point x="192" y="1448"/>
      <point x="230" y="1384" type="curve" smooth="yes"/>
      <point x="268" y="1320"/>
      <point x="278" y="1308"/>
      <point x="338" y="1343" type="curve" smooth="yes"/>
    </contour>
  </outline>
</glyph>
<glyph name="dcaron" format="1">
  <advance width="1379"/>
  <unicode hex="010F"/>
  <outline>
    <contour>
      <point x="1195" y="1016" type="curve" smooth="yes"/>
      <point x="1287" y="1016"/>
      <point x="1299" y="1023"/>
      <point x="1313" y="1085" type="curve"/>
      <point x="1431" y="1640" type="line"/>
      <point x="1443" y="1710"/>
      <point x="1420" y="1724"/>
      <point x="1295" y="1724" type="curve" smooth="yes"/>
      <point x="1170" y="1724"/>
      <point x="1143" y="1710"/>
      <point x="1135" y="1640" type="curve"/>
      <point x="1097" y="1085" type="line" smooth="yes"/>
      <point x="1093" y="1023"/>
      <point x="1103" y="1016"/>
    </contour>
    <component base="d"/>
  </outline>
</glyph>
<glyph name="Hbar" format="1">
  <advance width="1351"/>
  <unicode hex="0126"/>
  <outline>
    <contour>
      <point x="1220" y="1078" type="line"/>
      <point x="1290" y="1078"/>
      <point x="1292" y="1103"/>
      <point x="1292" y="1185" type="curve" smooth="yes"/>
      <point x="1292" y="1275"/>
      <point x="1290" y="1304"/>
      <point x="1220" y="1304" type="curve" smooth="yes"/>
      <point x="132" y="1304" type="line" smooth="yes"/>
      <point x="62" y="1304"/>
      <point x="60" y="1276"/>
      <point x="60" y="1186" type="curve" smooth="yes"/>
      <point x="60" y="1104"/>
      <point x="62" y="1078"/>
      <point x="132" y="1078" type="curve" smooth="yes"/>
    </contour>
    <component base="H" xOffset="59"/>
  </outline>
</glyph>
<glyph name="hbar" format="1">
  <advance width="1087"/>
  <unicode hex="0127"/>
  <outline>
    <contour>
      <point x="631" y="1334" type="line"/>
      <point x="701" y="1334"/>
      <point x="703" y="1350"/>
      <point x="703" y="1424" type="curve" smooth="yes"/>
      <point x="703" y="1498"/>
      <point x="701" y="1514"/>
      <point x="631" y="1514" type="curve" smooth="yes"/>
      <point x="89" y="1514" type="line" smooth="yes"/>
      <point x="19" y="1514"/>
      <point x="17" y="1498"/>
      <point x="17" y="1424" type="curve" smooth="yes"/>
      <point x="17" y="1350"/>
      <point x="19" y="1334"/>
      <point x="89" y="1334" type="curve" smooth="yes"/>
    </contour>
    <contour>
      <point x="502" y="-170" type="move" name="btm"/>
    </contour>
    <contour>
      <point x="502" y="1700" type="move" name="top"/>
    </contour>
    <component base="h"/>
  </outline>
</glyph>
<glyph name="lcaron" format="1">
  <advance width="810"/>
  <unicode hex="013E"/>
  <outline>
    <contour>
      <point x="620" y="1016" type="curve" smooth="yes"/>
      <point x="712" y="1016"/>
      <point x="724" y="1023"/>
      <point x="738" y="1085" type="curve"/>
      <point x="856" y="1640" type="line"/>
      <point x="868" y="1710"/>
      <point x="845" y="1724"/>
      <point x="720" y="1724" type="curve" smooth="yes"/>
      <point x="595" y="1724"/>
      <point x="568" y="1710"/>
      <point x="560" y="1640" type="curve"/>
      <point x="522" y="1085" type="line" smooth="yes"/>
      <point x="518" y="1023"/>
      <point x="528" y="1016"/>
    </contour>
    <component base="l"/>
  </outline>
</glyph>
<glyph name="Ldot" format="1">
  <advance width="884"/>
  <unicode hex="013F"/>
  <outline>
    <contour>
      <point x="741" y="738" type="curve" smooth="yes"/>
      <point x="862" y="738"/>
      <point x="879" y="745"/>
      <point x="882" y="795" type="curve" smooth="yes"/>
      <point x="893" y="990" type="line" smooth="yes"/>
      <point x="896" y="1047"/>
      <point x="877" y="1063"/>
      <point x="741" y="1063" type="curve" smooth="yes"/>
      <point x="605" y="1063"/>
      <point x="585" y="1047"/>
      <point x="589" y="990" type="curve" smooth="yes"/>
      <point x="601" y="795" type="line" smooth="yes"/>
      <point x="604" y="745"/>
      <point x="620" y="738"/>
    </contour>
    <component base="L"/>
  </outline>
</glyph>
<glyph name="Lslash" format="1">
  <advance width="820"/>
  <unicode hex="0141"/>
  <outline>
    <contour>
      <point x="56" y="771" type="line"/>
      <point x="22" y="750"/>
      <point x="13" y="731"/>
      <point x="13" y="679" type="curve" smooth="yes"/>
      <point x="13" y="612" type="line" smooth="yes"/>
      <point x="13" y="566"/>
      <point x="20" y="553"/>
      <point x="43" y="553" type="curve" smooth="yes"/>
      <point x="60" y="553"/>
      <point x="83" y="562"/>
      <point x="130" y="590" type="curve" smooth="yes"/>
      <point x="733" y="946" type="line" smooth="yes"/>
      <point x="773" y="969"/>
      <point x="780" y="991"/>
      <point x="780" y="1047" type="curve" smooth="yes"/>
      <point x="780" y="1135" type="line" smooth="yes"/>
      <point x="780" y="1167"/>
      <point x="769" y="1184"/>
      <point x="745" y="1184" type="curve" smooth="yes"/>
      <point x="721" y="1184"/>
      <point x="701" y="1171"/>
      <point x="668" y="1150" type="curve" smooth="yes"/>
    </contour>
    <component base="L"/>
  </outline>
</glyph>
<glyph name="napostrophe" format="1">
  <advance width="1079"/>
  <unicode hex="0149"/>
  <outline>
    <contour>
      <point x="-95" y="1335" type="curve" smooth="yes"/>
      <point x="-95" y="1302"/>
      <point x="-67" y="1295"/>
      <point x="-1" y="1295" type="curve" smooth="yes"/>
      <point x="83" y="1295"/>
      <point x="99" y="1305"/>
      <point x="127" y="1363" type="curve"/>
      <point x="205" y="1547" type="line" smooth="yes"/>
      <point x="228" y="1597"/>
      <point x="229" y="1628"/>
      <point x="232" y="1687" type="curve" smooth="yes"/>
      <point x="239" y="1828" type="line" smooth="yes"/>
      <point x="242" y="1885"/>
      <point x="218" y="1901"/>
      <point x="55" y="1901" type="curve" smooth="yes"/>
      <point x="-99" y="1901"/>
      <point x="-122" y="1885"/>
      <point x="-118" y="1828" type="curve" smooth="yes"/>
      <point x="-108" y="1692" type="line" smooth="yes"/>
      <point x="-106" y="1659"/>
      <point x="-97" y="1627"/>
      <point x="-41" y="1627" type="curve" smooth="yes"/>
      <point x="16" y="1627" type="line"/>
      <point x="-52" y="1442" type="line" smooth="yes"/>
      <point x="-78" y="1381"/>
      <point x="-95" y="1354"/>
    </contour>
    <component base="n"/>
  </outline>
</glyph>
<glyph name="Eng" format="1">
  <advance width="1234"/>
  <unicode hex="014A"/>
  <outline>
    <contour>
      <point x="819" y="198" type="line"/>
      <point x="819" y="176"/>
      <point x="821" y="65"/>
      <point x="821" y="46" type="curve" smooth="yes"/>
      <point x="821" y="-82"/>
      <point x="786" y="-159"/>
      <point x="696" y="-159" type="curve" smooth="yes"/>
      <point x="661" y="-159" type="line" smooth="yes"/>
      <point x="606" y="-159"/>
      <point x="599" y="-173"/>
      <point x="599" y="-239" type="curve" smooth="yes"/>
      <point x="599" y="-305"/>
      <point x="606" y="-316"/>
      <point x="661" y="-316" type="curve" smooth="yes"/>
      <point x="768" y="-316" type="line" smooth="yes"/>
      <point x="996" y="-316"/>
      <point x="1054" y="-112"/>
      <point x="1065" y="98" type="curve"/>
    </contour>
    <contour>
      <point x="432" y="1646" type="line"/>
      <point x="264" y="1518" type="line"/>
      <point x="847" y="28" type="line"/>
      <point x="983" y="146" type="line"/>
    </contour>
    <contour>
      <point x="304" y="0" type="curve" smooth="yes"/>
      <point x="409" y="0"/>
      <point x="421" y="7"/>
      <point x="423" y="68" type="curve"/>
      <point x="436" y="1607" type="line"/>
      <point x="438" y="1676"/>
      <point x="414" y="1690"/>
      <point x="283" y="1690" type="curve" smooth="yes"/>
      <point x="143" y="1690"/>
      <point x="123" y="1676"/>
      <point x="125" y="1607" type="curve" smooth="yes"/>
      <point x="168" y="68" type="line" smooth="yes"/>
      <point x="170" y="7"/>
      <point x="185" y="0"/>
    </contour>
    <contour>
      <point x="946" y="0" type="curve" smooth="yes"/>
      <point x="1051" y="0"/>
      <point x="1065" y="98"/>
      <point x="1065" y="98" type="curve"/>
      <point x="1109" y="1607" type="line" smooth="yes"/>
      <point x="1111" y="1676"/>
      <point x="1088" y="1690"/>
      <point x="930" y="1690" type="curve" smooth="yes"/>
      <point x="789" y="1690"/>
      <point x="765" y="1676"/>
      <point x="767" y="1607" type="curve"/>
      <point x="841" y="68" type="line"/>
      <point x="843" y="7"/>
      <point x="877" y="0"/>
    </contour>
    <contour>
      <point x="414" y="1063" type="line"/>
      <point x="499" y="1063" type="line"/>
      <point x="499" y="1120" type="line"/>
      <point x="414" y="1120" type="line"/>
    </contour>
    <contour>
      <point x="768" y="569" type="line"/>
      <point x="853" y="569" type="line"/>
      <point x="853" y="627" type="line"/>
      <point x="768" y="627" type="line"/>
    </contour>
  </outline>
</glyph>
<glyph name="oe" format="1">
  <advance width="1596"/>
  <unicode hex="0153"/>
  <outline>
    <contour>
      <point x="919" y="484" type="line"/>
      <point x="1257" y="484" type="line"/>
      <point x="1257" y="634" type="line"/>
      <point x="919" y="634" type="line"/>
    </contour>
    <contour>
      <point x="1206" y="247" type="line"/>
      <point x="1206" y="152"/>
      <point x="1168" y="132"/>
      <point x="1082" y="132" type="curve" smooth="yes"/>
      <point x="991" y="132"/>
      <point x="938" y="166"/>
      <point x="940" y="250" type="curve" smooth="yes"/>
      <point x="959" y="927" type="line" smooth="yes"/>
      <point x="962" y="1040"/>
      <point x="1014" y="1058"/>
      <point x="1080" y="1058" type="curve" smooth="yes"/>
      <point x="1140" y="1058"/>
      <point x="1185" y="1040"/>
      <point x="1188" y="927" type="curve"/>
      <point x="1203" y="484" type="line"/>
      <point x="1338" y="484" type="line" smooth="yes"/>
      <point x="1458" y="484"/>
      <point x="1478" y="491"/>
      <point x="1480" y="541" type="curve" smooth="yes"/>
      <point x="1495" y="910" type="line" smooth="yes"/>
      <point x="1503" y="1123"/>
      <point x="1282" y="1214"/>
      <point x="1121" y="1214" type="curve" smooth="yes"/>
      <point x="918" y="1214"/>
      <point x="813" y="1132"/>
      <point x="759" y="1066" type="curve"/>
      <point x="642" y="1066" type="line"/>
      <point x="670" y="167" type="line"/>
      <point x="708" y="151" type="line"/>
      <point x="803" y="34"/>
      <point x="948" y="-12"/>
      <point x="1073" y="-12" type="curve" smooth="yes"/>
      <point x="1273" y="-12"/>
      <point x="1470" y="37"/>
      <point x="1470" y="247" type="curve" smooth="yes"/>
      <point x="1470" y="291" type="line" smooth="yes"/>
      <point x="1470" y="341"/>
      <point x="1452" y="355"/>
      <point x="1334" y="355" type="curve" smooth="yes"/>
      <point x="1224" y="355"/>
      <point x="1206" y="340"/>
      <point x="1206" y="290" type="curve" smooth="yes"/>
    </contour>
    <contour>
      <point x="668" y="246" type="line"/>
      <point x="668" y="143"/>
      <point x="595" y="132"/>
      <point x="541" y="132" type="curve" smooth="yes"/>
      <point x="448" y="132"/>
      <point x="405" y="166"/>
      <point x="408" y="268" type="curve" smooth="yes"/>
      <point x="428" y="927" type="line" smooth="yes"/>
      <point x="431" y="1040"/>
      <point x="475" y="1058"/>
      <point x="541" y="1058" type="curve" smooth="yes"/>
      <point x="585" y="1058"/>
      <point x="638" y="1044"/>
      <point x="646" y="967" type="curve"/>
      <point x="884" y="1066" type="line"/>
      <point x="789" y="1166"/>
      <point x="688" y="1214"/>
      <point x="526" y="1214" type="curve" smooth="yes"/>
      <point x="319" y="1214"/>
      <point x="103" y="1123"/>
      <point x="111" y="910" type="curve" smooth="yes"/>
      <point x="134" y="276" type="line" smooth="yes"/>
      <point x="142" y="58"/>
      <point x="315" y="-12"/>
      <point x="495" y="-12" type="curve" smooth="yes"/>
      <point x="710" y="-12"/>
      <point x="821" y="92"/>
      <point x="861" y="145" type="curve"/>
    </contour>
  </outline>
</glyph>
<glyph name="tcaron" format="1">
  <advance width="815"/>
  <unicode hex="0165"/>
  <outline>
    <contour>
      <point x="646" y="1248" type="curve" smooth="yes"/>
      <point x="738" y="1248"/>
      <point x="750" y="1255"/>
      <point x="764" y="1317" type="curve"/>
      <point x="882" y="1872" type="line"/>
      <point x="894" y="1942"/>
      <point x="871" y="1956"/>
      <point x="746" y="1956" type="curve" smooth="yes"/>
      <point x="621" y="1956"/>
      <point x="594" y="1942"/>
      <point x="586" y="1872" type="curve"/>
      <point x="548" y="1317" type="line" smooth="yes"/>
      <point x="544" y="1255"/>
      <point x="554" y="1248"/>
    </contour>
    <component base="t"/>
  </outline>
</glyph>
<glyph name="uni018F" format="1">
  <advance width="1166"/>
  <unicode hex="018F"/>
  <outline>
    <contour>
      <point x="114" y="1274" type="line"/>
      <point x="112" y="1193"/>
      <point x="135" y="1182"/>
      <point x="256" y="1182" type="curve" smooth="yes"/>
      <point x="379" y="1182"/>
      <point x="448" y="1193"/>
      <point x="445" y="1274" type="curve" smooth="yes"/>
      <point x="441" y="1393" type="line" smooth="yes"/>
      <point x="437" y="1505"/>
      <point x="475" y="1538"/>
      <point x="572" y="1538" type="curve" smooth="yes"/>
      <point x="666" y="1538"/>
      <point x="707" y="1505"/>
      <point x="704" y="1393" type="curve" smooth="yes"/>
      <point x="689" y="293" type="line" smooth="yes"/>
      <point x="686" y="176"/>
      <point x="650" y="160"/>
      <point x="572" y="160" type="curve" smooth="yes"/>
      <point x="495" y="160"/>
      <point x="474" y="176"/>
      <point x="471" y="293" type="curve"/>
      <point x="451" y="810" type="line" smooth="yes"/>
      <point x="449" y="891"/>
      <point x="251" y="901"/>
      <point x="126" y="901" type="curve"/>
      <point x="152" y="324" type="line" smooth="yes"/>
      <point x="147" y="124"/>
      <point x="235" y="-12"/>
      <point x="572" y="-12" type="curve" smooth="yes"/>
      <point x="910" y="-12"/>
      <point x="1011" y="124"/>
      <point x="1006" y="324" type="curve" smooth="yes"/>
      <point x="1048" y="1384" type="line" smooth="yes"/>
      <point x="1053" y="1558"/>
      <point x="916" y="1701"/>
      <point x="572" y="1701" type="curve" smooth="yes"/>
      <point x="235" y="1701"/>
      <point x="106" y="1560"/>
      <point x="111" y="1386" type="curve" smooth="yes"/>
    </contour>
    <contour>
      <point x="868" y="715" type="line" smooth="yes"/>
      <point x="938" y="715"/>
      <point x="940" y="700"/>
      <point x="940" y="782" type="curve" smooth="yes"/>
      <point x="940" y="872"/>
      <point x="938" y="901"/>
      <point x="868" y="901" type="curve" smooth="yes"/>
      <point x="240" y="901" type="line" smooth="yes"/>
      <point x="170" y="901"/>
      <point x="168" y="873"/>
      <point x="168" y="783" type="curve" smooth="yes"/>
      <point x="168" y="701"/>
      <point x="170" y="715"/>
      <point x="240" y="715" type="curve" smooth="yes"/>
    </contour>
  </outline>
</glyph>
<glyph name="dotlessj" format="1">
  <advance width="571"/>
  <unicode hex="0237"/>
  <outline>
    <contour>
      <point x="285" y="-420" type="curve" smooth="yes"/>
      <point x="396" y="-420"/>
      <point x="414" y="-413"/>
      <point x="415" y="-363" type="curve" smooth="yes"/>
      <point x="447" y="1129" type="line"/>
      <point x="449" y="1186"/>
      <point x="430" y="1202"/>
      <point x="285" y="1202" type="curve" smooth="yes"/>
      <point x="140" y="1202"/>
      <point x="121" y="1186"/>
      <point x="123" y="1129" type="curve"/>
      <point x="156" y="-363" type="line" smooth="yes"/>
      <point x="157" y="-413"/>
      <point x="173" y="-420"/>
    </contour>
    <contour>
      <point x="285" y="-170" type="move" name="btm"/>
    </contour>
    <contour>
      <point x="285" y="1700" type="move" name="top"/>
    </contour>
  </outline>
</glyph>
<glyph name="caron" format="1">
  <advance width="0"/>
  <unicode hex="02C7"/>
  <outline>
    <contour>
      <point x="-99" y="1722" type="line"/>
      <point x="-130" y="1775"/>
      <point x="-144" y="1784"/>
      <point x="-255" y="1784" type="curve" smooth="yes"/>
      <point x="-357" y="1784"/>
      <point x="-376" y="1774"/>
      <point x="-376" y="1747" type="curve" smooth="yes"/>
      <point x="-376" y="1726"/>
      <point x="-352" y="1694"/>
      <point x="-334" y="1671" type="curve" smooth="yes"/>
      <point x="-152" y="1441" type="line" smooth="yes"/>
      <point x="-115" y="1394"/>
      <point x="-103" y="1382"/>
      <point x="-9" y="1382" type="curve" smooth="yes"/>
      <point x="7" y="1382" type="line" smooth="yes"/>
      <point x="103" y="1382"/>
      <point x="115" y="1394"/>
      <point x="152" y="1441" type="curve" smooth="yes"/>
      <point x="336" y="1671" type="line" smooth="yes"/>
      <point x="355" y="1694"/>
      <point x="378" y="1726"/>
      <point x="378" y="1747" type="curve" smooth="yes"/>
      <point x="378" y="1774"/>
      <point x="359" y="1784"/>
      <point x="257" y="1784" type="curve" smooth="yes"/>
      <point x="146" y="1784"/>
      <point x="139" y="1774"/>
      <point x="108" y="1722" type="curve" smooth="yes"/>
      <point x="33" y="1597" type="line" smooth="yes"/>
      <point x="20" y="1574"/>
      <point x="11" y="1563"/>
      <point x="1" y="1563" type="curve" smooth="yes"/>
      <point x="-10" y="1563"/>
      <point x="-19" y="1575"/>
      <point x="-33" y="1601" type="curve" smooth="yes"/>
    </contour>
    <contour>
      <point x="0" y="1700" type="move" name="_top"/>
    </contour>
  </outline>
</glyph>
<glyph name="breve" format="1">
  <advance width="0"/>
  <unicode hex="02D8"/>
  <outline>
    <contour>
      <point x="-129" y="1722" type="curve" smooth="yes"/>
      <point x="-129" y="1783"/>
      <point x="-187" y="1784"/>
      <point x="-275" y="1784" type="curve" smooth="yes"/>
      <point x="-377" y="1784"/>
      <point x="-376" y="1754"/>
      <point x="-376" y="1727" type="curve" smooth="yes"/>
      <point x="-376" y="1501"/>
      <point x="-200" y="1382"/>
      <point x="-9" y="1382" type="curve" smooth="yes"/>
      <point x="8" y="1382" type="line" smooth="yes"/>
      <point x="200" y="1382"/>
      <point x="378" y="1453"/>
      <point x="378" y="1727" type="curve" smooth="yes"/>
      <point x="378" y="1754"/>
      <point x="379" y="1784"/>
      <point x="277" y="1784" type="curve" smooth="yes"/>
      <point x="186" y="1784"/>
      <point x="133" y="1782"/>
      <point x="133" y="1722" type="curve" smooth="yes"/>
      <point x="133" y="1612"/>
      <point x="100" y="1563"/>
      <point x="1" y="1563" type="curve" smooth="yes"/>
      <point x="-100" y="1563"/>
      <point x="-129" y="1613"/>
    </contour>
    <contour>
      <point x="0" y="1700" type="move" name="_top"/>
    </contour>
  </outline>
</glyph>
<glyph name="ogonek" format="1">
  <advance width="0"/>
  <unicode hex="02DB"/>
  <outline>
    <contour>
      <point x="88" y="28" type="curve"/>
      <point x="29" y="28"/>
      <point x="-36" y="29"/>
      <point x="-72" y="29" type="curve" smooth="yes"/>
      <point x="-129" y="29"/>
      <point x="-219" y="-104"/>
      <point x="-219" y="-226" type="curve" smooth="yes"/>
      <point x="-219" y="-380"/>
      <point x="-116" y="-466"/>
      <point x="19" y="-466" type="curve" smooth="yes"/>
      <point x="113" y="-466"/>
      <point x="198" y="-448"/>
      <point x="243" y="-396" type="curve" smooth="yes"/>
      <point x="253" y="-383"/>
      <point x="252" y="-359"/>
      <point x="245" y="-333" type="curve" smooth="yes"/>
      <point x="225" y="-266"/>
      <point x="217" y="-206"/>
      <point x="185" y="-206" type="curve" smooth="yes"/>
      <point x="138" y="-206"/>
      <point x="124" y="-230"/>
      <point x="58" y="-230" type="curve" smooth="yes"/>
      <point x="17" y="-230"/>
      <point x="-32" y="-184"/>
      <point x="-32" y="-112" type="curve" smooth="yes"/>
      <point x="-32" y="-60"/>
      <point x="-5" y="7"/>
    </contour>
  </outline>
</glyph>
<glyph name="endash" format="1">
  <advance width="1080"/>
  <unicode hex="2013"/>
  <outline>
    <contour>
      <point x="898" y="480" type="line"/>
      <point x="968" y="480"/>
      <point x="970" y="505"/>
      <point x="970" y="587" type="curve" smooth="yes"/>
      <point x="970" y="677"/>
      <point x="968" y="706"/>
      <point x="898" y="706" type="curve" smooth="yes"/>
      <point x="182" y="706" type="line" smooth="yes"/>
      <point x="112" y="706"/>
      <point x="110" y="678"/>
      <point x="110" y="588" type="curve" smooth="yes"/>
      <point x="110" y="506"/>
      <point x="112" y="480"/>
      <point x="182" y="480" type="curve" smooth="yes"/>
    </contour>
  </outline>
</glyph>
<glyph name="emdash" format="1">
  <advance width="1620"/>
  <unicode hex="2014"/>
  <outline>
    <contour>
      <point x="1438" y="480" type="line"/>
      <point x="1508" y="480"/>
      <point x="1510" y="505"/>
      <point x="1510" y="587" type="curve" smooth="yes"/>
      <point x="1510" y="677"/>
      <point x="1508" y="706"/>
      <point x="1438" y="706" type="curve" smooth="yes"/>
      <point x="182" y="706" type="line" smooth="yes"/>
      <point x="112" y="706"/>
      <point x="110" y="678"/>
      <point x="110" y="588" type="curve" smooth="yes"/>
      <point x="110" y="506"/>
      <point x="112" y="480"/>
      <point x="182" y="480" type="curve" smooth="yes"/>
    </contour>
  </outline>
</glyph>
<glyph name="quoteright" format="1">
  <advance width="520"/>
  <unicode hex="2019"/>
  <outline>
    <contour>
      <point x="50" y="1046" type="curve" smooth="yes"/>
      <point x="50" y="1013"/>
      <point x="78" y="1006"/>
      <point x="144" y="1006" type="curve" smooth="yes"/>
      <point x="228" y="1006"/>
      <point x="244" y="1016"/>
      <point x="272" y="1074" type="curve" smooth="yes"/>
      <point x="405" y="1370" type="line" smooth="yes"/>
      <point x="428" y="1420"/>
      <point x="429" y="1451"/>
      <point x="432" y="1510" type="curve" smooth="yes"/>
      <point x="439" y="1651" type="line" smooth="yes"/>
      <point x="442" y="1708"/>
      <point x="418" y="1724"/>
      <point x="255" y="1724" type="curve" smooth="yes"/>
      <point x="101" y="1724"/>
      <point x="78" y="1708"/>
      <point x="82" y="1651" type="curve" smooth="yes"/>
      <point x="92" y="1515" type="line" smooth="yes"/>
      <point x="94" y="1482"/>
      <point x="103" y="1450"/>
      <point x="159" y="1450" type="curve" smooth="yes"/>
      <point x="216" y="1450" type="line"/>
      <point x="93" y="1153" type="line" smooth="yes"/>
      <point x="67" y="1092"/>
      <point x="50" y="1065"/>
    </contour>
  </outline>
</glyph>
<glyph name="bullet" format="1">
  <advance width="763"/>
  <unicode hex="2022"/>
  <outline>
    <contour>
      <point x="379" y="1045" type="curve" smooth="yes"/>
      <point x="556" y="1045"/>
      <point x="655" y="983"/>
      <point x="648" y="836" type="curve" smooth="yes"/>
      <point x="641" y="689" type="line" smooth="yes"/>
      <point x="633" y="531"/>
      <point x="538" y="480"/>
      <point x="379" y="480" type="curve" smooth="yes"/>
      <point x="220" y="480"/>
      <point x="125" y="531"/>
      <point x="117" y="689" type="curve" smooth="yes"/>
      <point x="110" y="836" type="line" smooth="yes"/>
      <point x="103" y="983"/>
      <point x="202" y="1045"/>
    </contour>
  </outline>
</glyph>
<glyph name="guilsinglleft" format="1">
  <advance width="668"/>
  <unicode hex="2039"/>
  <outline>
    <contour>
      <point x="313" y="593" type="line"/>
      <point x="542" y="291" type="line" smooth="yes"/>
      <point x="573" y="250"/>
      <point x="588" y="231"/>
      <point x="588" y="210" type="curve" smooth="yes"/>
      <point x="588" y="177"/>
      <point x="572" y="170"/>
      <point x="477" y="170" type="curve" smooth="yes"/>
      <point x="420" y="170"/>
      <point x="377" y="171"/>
      <point x="341" y="216" type="curve"/>
      <point x="82" y="525" type="line" smooth="yes"/>
      <point x="57" y="556"/>
      <point x="50" y="572"/>
      <point x="50" y="593" type="curve" smooth="yes"/>
      <point x="50" y="614"/>
      <point x="57" y="625"/>
      <point x="77" y="661" type="curve"/>
      <point x="266" y="1027" type="line"/>
      <point x="298" y="1089"/>
      <point x="339" y="1089"/>
      <point x="447" y="1089" type="curve" smooth="yes"/>
      <point x="554" y="1089"/>
      <point x="588" y="1079"/>
      <point x="588" y="1046" type="curve" smooth="yes"/>
      <point x="588" y="1025"/>
      <point x="581" y="1011"/>
      <point x="554" y="968" type="curve" smooth="yes"/>
    </contour>
  </outline>
</glyph>
<glyph name="fraction" format="1">
  <advance width="500"/>
  <unicode hex="2044"/>
  <outline>
    <contour>
      <point x="-40" y="-1" type="curve" smooth="yes"/>
      <point x="19" y="-2"/>
      <point x="40" y="2"/>
      <point x="55" y="48" type="curve"/>
      <point x="618" y="1616" type="line"/>
      <point x="633" y="1668"/>
      <point x="611" y="1685"/>
      <point x="508" y="1686" type="curve" smooth="yes"/>
      <point x="409" y="1687"/>
      <point x="402" y="1668"/>
      <point x="386" y="1615" type="curve"/>
      <point x="-116" y="57" type="line" smooth="yes"/>
      <point x="-131" y="10"/>
      <point x="-118" y="0"/>
    </contour>
  </outline>
</glyph>
<glyph name="trademark" format="1">
  <advance width="2027"/>
  <unicode hex="2122"/>
  <outline>
    <contour>
      <point x="1359" y="1147" type="line"/>
      <point x="1229" y="1617" type="line" smooth="yes"/>
      <point x="1210" y="1685"/>
      <point x="1203" y="1690"/>
      <point x="1038" y="1690" type="curve" smooth="yes"/>
      <point x="877" y="1690"/>
      <point x="846" y="1681"/>
      <point x="849" y="1606" type="curve" smooth="yes"/>
      <point x="881" y="742" type="line" smooth="yes"/>
      <point x="883" y="684"/>
      <point x="894" y="680"/>
      <point x="981" y="680" type="curve" smooth="yes"/>
      <point x="1088" y="680"/>
      <point x="1101" y="684"/>
      <point x="1101" y="740" type="curve" smooth="yes"/>
      <point x="1098" y="1331" type="line"/>
      <point x="1108" y="1331" type="line"/>
      <point x="1259" y="890" type="line" smooth="yes"/>
      <point x="1268" y="857"/>
      <point x="1277" y="852"/>
      <point x="1352" y="852" type="curve" smooth="yes"/>
      <point x="1436" y="852"/>
      <point x="1448" y="856"/>
      <point x="1457" y="888" type="curve" smooth="yes"/>
      <point x="1599" y="1331" type="line"/>
      <point x="1608" y="1331" type="line"/>
      <point x="1603" y="740" type="line" smooth="yes"/>
      <point x="1603" y="684"/>
      <point x="1617" y="680"/>
      <point x="1723" y="680" type="curve" smooth="yes"/>
      <point x="1819" y="680"/>
      <point x="1831" y="684"/>
      <point x="1833" y="740" type="curve" smooth="yes"/>
      <point x="1866" y="1607" type="line" smooth="yes"/>
      <point x="1869" y="1682"/>
      <point x="1846" y="1690"/>
      <point x="1689" y="1690" type="curve" smooth="yes"/>
      <point x="1528" y="1690"/>
      <point x="1511" y="1685"/>
      <point x="1493" y="1617" type="curve" smooth="yes"/>
      <point x="1366" y="1147" type="line"/>
    </contour>
    <contour>
      <point x="436" y="680" type="curve" smooth="yes"/>
      <point x="511" y="680"/>
      <point x="544" y="687"/>
      <point x="545" y="718" type="curve" smooth="yes"/>
      <point x="572" y="1590" type="line"/>
      <point x="299" y="1589" type="line"/>
      <point x="327" y="721" type="line" smooth="yes"/>
      <point x="328" y="684"/>
      <point x="361" y="680"/>
    </contour>
    <contour>
      <point x="693" y="1479" type="line"/>
      <point x="749" y="1479"/>
      <point x="751" y="1501"/>
      <point x="751" y="1581" type="curve" smooth="yes"/>
      <point x="751" y="1658"/>
      <point x="749" y="1690"/>
      <point x="693" y="1690" type="curve" smooth="yes"/>
      <point x="177" y="1690" type="line" smooth="yes"/>
      <point x="122" y="1690"/>
      <point x="120" y="1658"/>
      <point x="120" y="1581" type="curve" smooth="yes"/>
      <point x="120" y="1501"/>
      <point x="122" y="1479"/>
      <point x="177" y="1479" type="curve" smooth="yes"/>
    </contour>
  </outline>
</glyph>
<glyph name="notequal" format="1">
  <advance width="938"/>
  <unicode hex="2260"/>
  <outline>
    <contour>
      <point x="806" y="831" type="line"/>
      <point x="874" y="831"/>
      <point x="878" y="852"/>
      <point x="878" y="930" type="curve" smooth="yes"/>
      <point x="878" y="1016"/>
      <point x="874" y="1041"/>
      <point x="806" y="1041" type="curve" smooth="yes"/>
      <point x="132" y="1041" type="line" smooth="yes"/>
      <point x="64" y="1041"/>
      <point x="60" y="1017"/>
      <point x="60" y="931" type="curve" smooth="yes"/>
      <point x="60" y="853"/>
      <point x="64" y="831"/>
      <point x="132" y="831" type="curve" smooth="yes"/>
    </contour>
    <contour>
      <point x="806" y="428" type="line"/>
      <point x="874" y="428"/>
      <point x="878" y="449"/>
      <point x="878" y="527" type="curve" smooth="yes"/>
      <point x="878" y="613"/>
      <point x="874" y="638"/>
      <point x="806" y="638" type="curve" smooth="yes"/>
      <point x="132" y="638" type="line" smooth="yes"/>
      <point x="64" y="638"/>
      <point x="60" y="614"/>
      <point x="60" y="528" type="curve" smooth="yes"/>
      <point x="60" y="450"/>
      <point x="64" y="428"/>
      <point x="132" y="428" type="curve" smooth="yes"/>
    </contour>
    <contour>
      <point x="305" y="143" type="curve" smooth="yes"/>
      <point x="376" y="142"/>
      <point x="403" y="146"/>
      <point x="420" y="192" type="curve" smooth="yes"/>
      <point x="726" y="1267" type="line" smooth="yes"/>
      <point x="745" y="1319"/>
      <point x="720" y="1336"/>
      <point x="606" y="1337" type="curve" smooth="yes"/>
      <point x="491" y="1338"/>
      <point x="482" y="1319"/>
      <point x="464" y="1266" type="curve"/>
      <point x="219" y="201" type="line"/>
      <point x="198" y="156"/>
      <point x="217" y="144"/>
    </contour>
  </outline>
</glyph>
<glyph name="caron.cap" format="1">
  <advance width="0"/>
  <outline>
    <contour>
      <point x="-95" y="2064" type="line"/>
      <point x="-129" y="2114"/>
      <point x="-144" y="2118"/>
      <point x="-255" y="2118" type="curve" smooth="yes"/>
      <point x="-357" y="2118"/>
      <point x="-376" y="2108"/>
      <point x="-376" y="2081" type="curve" smooth="yes"/>
      <point x="-376" y="2060"/>
      <point x="-345" y="2026"/>
      <point x="-325" y="2005" type="curve" smooth="yes"/>
      <point x="-160" y="1830" type="line" smooth="yes"/>
      <point x="-119" y="1786"/>
      <point x="-103" y="1784"/>
      <point x="-9" y="1784" type="curve" smooth="yes"/>
      <point x="7" y="1784" type="line" smooth="yes"/>
      <point x="103" y="1784"/>
      <point x="118" y="1786"/>
      <point x="160" y="1830" type="curve" smooth="yes"/>
      <point x="327" y="2005" type="line" smooth="yes"/>
      <point x="348" y="2027"/>
      <point x="378" y="2060"/>
      <point x="378" y="2081" type="curve" smooth="yes"/>
      <point x="378" y="2108"/>
      <point x="359" y="2118"/>
      <point x="257" y="2118" type="curve" smooth="yes"/>
      <point x="154" y="2118"/>
      <point x="139" y="2112"/>
      <point x="103" y="2064" type="curve" smooth="yes"/>
      <point x="40" y="1981" type="line" smooth="yes"/>
      <point x="24" y="1960"/>
      <point x="13" y="1947"/>
      <point x="1" y="1947" type="curve" smooth="yes"/>
      <point x="-12" y="1947"/>
      <point x="-22" y="1959"/>
      <point x="-40" y="1985" type="curve" smooth="yes"/>
    </contour>
    <contour>
      <point x="0" y="1700" type="move" name="_top"/>
    </contour>
  </outline>
</glyph>
<glyph name="circumflex.cap" format="1">
  <advance width="0"/>
  <outline>
    <contour>
      <point x="-314" y="1894" type="line" smooth="yes"/>
      <point x="-346" y="1848"/>
      <point x="-364" y="1827"/>
      <point x="-364" y="1806" type="curve" smooth="yes"/>
      <point x="-364" y="1780"/>
      <point x="-344" y="1770"/>
      <point x="-271" y="1770" type="curve" smooth="yes"/>
      <point x="-195" y="1770"/>
      <point x="-186" y="1779"/>
      <point x="-131" y="1832" type="curve" smooth="yes"/>
      <point x="-42" y="1917" type="line" smooth="yes"/>
      <point x="-23" y="1935"/>
      <point x="-11" y="1944"/>
      <point x="1" y="1944" type="curve" smooth="yes"/>
      <point x="13" y="1944"/>
      <point x="25" y="1935"/>
      <point x="42" y="1918" type="curve" smooth="yes"/>
      <point x="134" y="1832" type="line" smooth="yes"/>
      <point x="188" y="1781"/>
      <point x="202" y="1770"/>
      <point x="272" y="1770" type="curve" smooth="yes"/>
      <point x="354" y="1770"/>
      <point x="365" y="1780"/>
      <point x="365" y="1806" type="curve" smooth="yes"/>
      <point x="365" y="1827"/>
      <point x="348" y="1848"/>
      <point x="315" y="1894" type="curve" smooth="yes"/>
      <point x="196" y="2056" type="line" smooth="yes"/>
      <point x="155" y="2112"/>
      <point x="127" y="2118"/>
      <point x="82" y="2118" type="curve" smooth="yes"/>
      <point x="-73" y="2118" type="line" smooth="yes"/>
      <point x="-129" y="2118"/>
      <point x="-158" y="2112"/>
      <point x="-198" y="2056" type="curve" smooth="yes"/>
    </contour>
    <contour>
      <point x="0" y="1700" type="move" name="_top"/>
    </contour>
  </outline>
</glyph>
<glyph name="dotaccent.cap" format="1">
  <advance width="0"/>
  <outline>
    <contour>
      <point x="0" y="1788" type="curve" smooth="yes"/>
      <point x="130" y="1788"/>
      <point x="150" y="1795"/>
      <point x="151" y="1845" type="curve"/>
      <point x="162" y="2040" type="line"/>
      <point x="163" y="2097"/>
      <point x="145" y="2113"/>
      <point x="0" y="2113" type="curve" smooth="yes"/>
      <point x="-145" y="2113"/>
      <point x="-163" y="2097"/>
      <point x="-162" y="2040" type="curve"/>
      <point x="-150" y="1845" type="line"/>
      <point x="-149" y="1795"/>
      <point x="-130" y="1788"/>
    </contour>
    <contour>
      <point x="0" y="1700" type="move" name="_top"/>
    </contour>
  </outline>
</glyph>
<glyph name="grave.cap" format="1">
  <advance width="0"/>
  <outline>
    <contour>
      <point x="76" y="1910" type="line"/>
      <point x="104" y="1861"/>
      <point x="130" y="1827"/>
      <point x="130" y="1804" type="curve" smooth="yes"/>
      <point x="130" y="1778"/>
      <point x="100" y="1770"/>
      <point x="32" y="1770" type="curve" smooth="yes"/>
      <point x="-64" y="1770"/>
      <point x="-70" y="1780"/>
      <point x="-108" y="1827" type="curve" smooth="yes"/>
      <point x="-252" y="2005" type="line" smooth="yes"/>
      <point x="-277" y="2037"/>
      <point x="-297" y="2062"/>
      <point x="-297" y="2083" type="curve" smooth="yes"/>
      <point x="-297" y="2110"/>
      <point x="-267" y="2118"/>
      <point x="-165" y="2118" type="curve" smooth="yes"/>
      <point x="-52" y="2118"/>
      <point x="-36" y="2109"/>
      <point x="-6" y="2056" type="curve" smooth="yes"/>
    </contour>
    <contour>
      <point x="0" y="1700" type="move" name="_top"/>
    </contour>
  </outline>
</glyph>
<glyph name="hungarumlaut.cap" format="1">
  <advance width="0"/>
  <outline>
    <contour>
      <point x="-273" y="1910" type="line"/>
      <point x="-301" y="1861"/>
      <point x="-327" y="1827"/>
      <point x="-327" y="1804" type="curve" smooth="yes"/>
      <point x="-327" y="1778"/>
      <point x="-297" y="1770"/>
      <point x="-229" y="1770" type="curve" smooth="yes"/>
      <point x="-133" y="1770"/>
      <point x="-127" y="1780"/>
      <point x="-89" y="1827" type="curve" smooth="yes"/>
      <point x="55" y="2005" type="line" smooth="yes"/>
      <point x="80" y="2037"/>
      <point x="100" y="2062"/>
      <point x="100" y="2083" type="curve" smooth="yes"/>
      <point x="100" y="2110"/>
      <point x="70" y="2118"/>
      <point x="-32" y="2118" type="curve" smooth="yes"/>
      <point x="-145" y="2118"/>
      <point x="-161" y="2109"/>
      <point x="-191" y="2056" type="curve" smooth="yes"/>
    </contour>
    <contour>
      <point x="114" y="1910" type="line" smooth="yes"/>
      <point x="83" y="1861"/>
      <point x="54" y="1827"/>
      <point x="52" y="1804" type="curve" smooth="yes"/>
      <point x="50" y="1778"/>
      <point x="80" y="1770"/>
      <point x="148" y="1770" type="curve" smooth="yes"/>
      <point x="244" y="1770"/>
      <point x="250" y="1780"/>
      <point x="292" y="1827" type="curve" smooth="yes"/>
      <point x="450" y="2005" type="line" smooth="yes"/>
      <point x="477" y="2037"/>
      <point x="499" y="2062"/>
      <point x="501" y="2083" type="curve" smooth="yes"/>
      <point x="503" y="2110"/>
      <point x="474" y="2118"/>
      <point x="372" y="2118" type="curve" smooth="yes"/>
      <point x="259" y="2118"/>
      <point x="242" y="2109"/>
      <point x="208" y="2056" type="curve" smooth="yes"/>
    </contour>
    <contour>
      <point x="0" y="1700" type="move" name="_top"/>
    </contour>
  </outline>
</glyph>
<glyph name="i.dot" format="1">
  <advance width="568"/>
  <outline>
    <contour>
      <point x="289" y="1360" type="curve" smooth="yes"/>
      <point x="419" y="1360"/>
      <point x="439" y="1367"/>
      <point x="440" y="1417" type="curve" smooth="yes"/>
      <point x="451" y="1612" type="line" smooth="yes"/>
      <point x="452" y="1669"/>
      <point x="434" y="1685"/>
      <point x="289" y="1685" type="curve" smooth="yes"/>
      <point x="144" y="1685"/>
      <point x="126" y="1669"/>
      <point x="127" y="1612" type="curve" smooth="yes"/>
      <point x="139" y="1417" type="line" smooth="yes"/>
      <point x="140" y="1367"/>
      <point x="159" y="1360"/>
    </contour>
    <contour>
      <point x="284" y="0" type="curve" smooth="yes"/>
      <point x="396" y="0"/>
      <point x="414" y="7"/>
      <point x="415" y="57" type="curve" smooth="yes"/>
      <point x="446" y="1129" type="line" smooth="yes"/>
      <point x="447" y="1186"/>
      <point x="429" y="1202"/>
      <point x="284" y="1202" type="curve" smooth="yes"/>
      <point x="139" y="1202"/>
      <point x="121" y="1186"/>
      <point x="122" y="1129" type="curve" smooth="yes"/>
      <point x="154" y="57" type="line" smooth="yes"/>
      <point x="155" y="7"/>
      <point x="172" y="0"/>
    </contour>
  </outline>
</glyph>
<glyph name="macron.cap" format="1">
  <advance width="0"/>
  <outline>
    <contour>
      <point x="287" y="1839" type="line"/>
      <point x="357" y="1839"/>
      <point x="359" y="1864"/>
      <point x="359" y="1946" type="curve" smooth="yes"/>
      <point x="359" y="2036"/>
      <point x="357" y="2065"/>
      <point x="287" y="2065" type="curve" smooth="yes"/>
      <point x="-281" y="2065" type="line" smooth="yes"/>
      <point x="-351" y="2065"/>
      <point x="-353" y="2037"/>
      <point x="-353" y="1947" type="curve" smooth="yes"/>
      <point x="-353" y="1865"/>
      <point x="-351" y="1839"/>
      <point x="-281" y="1839" type="curve" smooth="yes"/>
    </contour>
    <contour>
      <point x="0" y="1700" type="move" name="_top"/>
    </contour>
  </outline>
</glyph>
